<?xml version="1.0" standalone="no"?>
 <!DOCTYPE svg PUBLIC "-//W3C//DTD SVG 1.1//EN" 
 "http://www.w3.org/Graphics/SVG/1.1/DTD/svg11.dtd"> 
<svg xmlns="http://www.w3.org/2000/svg" version="1.1" 
    width="29.7002cm" height="21.0007cm" viewBox="0 0 116930 82680 ">
<title>SVG Picture created as TestProject-B_SilkS.svg date 2020/02/17 17:07:12 </title>
  <desc>Picture generated by PCBNEW </desc>
<g style="fill:#000000; fill-opacity:1;stroke:#000000; stroke-opacity:1;
stroke-linecap:round; stroke-linejoin:round; "
 transform="translate(0 0) scale(1 1)">
</g>
<g style="fill:#000000; fill-opacity:0.0; 
stroke:#000000; stroke-width:-0.000393701; stroke-opacity:1; 
stroke-linecap:round; stroke-linejoin:round;">
</g>
<g style="fill:#000000; fill-opacity:0.0; 
stroke:#000000; stroke-width:59.0551; stroke-opacity:1; 
stroke-linecap:round; stroke-linejoin:round;">
<path d="M1190 16434
L1190 16178
L1130 16178
L1093 16190
L1069 16215
L1056 16239
L1044 16288
L1044 16324
L1056 16373
L1069 16398
L1093 16422
L1130 16434
L1190 16434
" />
<path d="M947 16361
L825 16361
" />
<path d="M971 16434
L886 16178
L800 16434
" />
<path d="M752 16178
L606 16178
" />
<path d="M679 16434
L679 16178
" />
<path d="M532 16361
L411 16361
" />
<path d="M557 16434
L471 16178
L386 16434
" />
<path d="M1080 17214
L1105 17202
L1141 17202
L1178 17214
L1202 17238
L1214 17263
L1227 17312
L1227 17348
L1214 17397
L1202 17421
L1178 17446
L1141 17458
L1117 17458
L1080 17446
L1068 17433
L1068 17348
L1117 17348
" />
<path d="M958 17458
L958 17202
L812 17458
L812 17202
" />
<path d="M690 17458
L690 17202
L629 17202
L593 17214
L568 17238
L556 17263
L544 17312
L544 17348
L556 17397
L568 17421
L593 17446
L629 17458
L690 17458
" />
<path d="M1187 15214
L1102 15470
L1017 15214
" />
<path d="M785 15445
L797 15457
L834 15470
L858 15470
L895 15457
L919 15433
L931 15409
L943 15360
L943 15323
L931 15275
L919 15250
L895 15226
L858 15214
L834 15214
L797 15226
L785 15238
" />
<path d="M529 15445
L541 15457
L578 15470
L602 15470
L639 15457
L663 15433
L675 15409
L688 15360
L688 15323
L675 15275
L663 15250
L639 15226
L602 15214
L578 15214
L541 15226
L529 15238
" />
<path d="M44055 23622
L44055 24015
" />
<path d="M43661 23622
L44055 23622
" />
<path d="M44055 29133
L43661 29133
" />
<path d="M44055 28740
L44055 29133
" />
<path d="M38543 29133
L38543 28740
" />
<path d="M38937 29133
L38543 29133
" />
<path d="M38543 23622
L38937 23622
" />
<path d="M38543 24015
L38543 23622
" />
<path d="M44055 16141
L44055 16535
" />
<path d="M43661 16141
L44055 16141
" />
<path d="M44055 21653
L43661 21653
" />
<path d="M44055 21259
L44055 21653
" />
<path d="M38543 21653
L38543 21259
" />
<path d="M38937 21653
L38543 21653
" />
<path d="M38543 16141
L38937 16141
" />
<path d="M38543 16535
L38543 16141
" />
<path d="M44055 8661
L44055 9055
" />
<path d="M43661 8661
L44055 8661
" />
<path d="M44055 14173
L43661 14173
" />
<path d="M44055 13779
L44055 14173
" />
<path d="M38543 14173
L38543 13779
" />
<path d="M38937 14173
L38543 14173
" />
<path d="M38543 8661
L38937 8661
" />
<path d="M38543 9055
L38543 8661
" />
<path d="M44055 1181
L44055 1574
" />
<path d="M43661 1181
L44055 1181
" />
<path d="M44055 6692
L43661 6692
" />
<path d="M44055 6299
L44055 6692
" />
<path d="M38543 6692
L38543 6299
" />
<path d="M38937 6692
L38543 6692
" />
<path d="M38543 1181
L38937 1181
" />
<path d="M38543 1574
L38543 1181
" />
<path d="M36574 23622
L36574 24015
" />
<path d="M36181 23622
L36574 23622
" />
<path d="M36574 29133
L36181 29133
" />
<path d="M36574 28740
L36574 29133
" />
<path d="M31062 29133
L31062 28740
" />
<path d="M31456 29133
L31062 29133
" />
<path d="M31062 23622
L31456 23622
" />
<path d="M31062 24015
L31062 23622
" />
<path d="M36574 16141
L36574 16535
" />
<path d="M36181 16141
L36574 16141
" />
<path d="M36574 21653
L36181 21653
" />
<path d="M36574 21259
L36574 21653
" />
<path d="M31062 21653
L31062 21259
" />
<path d="M31456 21653
L31062 21653
" />
<path d="M31062 16141
L31456 16141
" />
<path d="M31062 16535
L31062 16141
" />
<path d="M36574 8661
L36574 9055
" />
<path d="M36181 8661
L36574 8661
" />
<path d="M36574 14173
L36181 14173
" />
<path d="M36574 13779
L36574 14173
" />
<path d="M31062 14173
L31062 13779
" />
<path d="M31456 14173
L31062 14173
" />
<path d="M31062 8661
L31456 8661
" />
<path d="M31062 9055
L31062 8661
" />
<path d="M36574 1181
L36574 1574
" />
<path d="M36181 1181
L36574 1181
" />
<path d="M36574 6692
L36181 6692
" />
<path d="M36574 6299
L36574 6692
" />
<path d="M31062 6692
L31062 6299
" />
<path d="M31456 6692
L31062 6692
" />
<path d="M31062 1181
L31456 1181
" />
<path d="M31062 1574
L31062 1181
" />
<path d="M29094 23622
L29094 24015
" />
<path d="M28700 23622
L29094 23622
" />
<path d="M29094 29133
L28700 29133
" />
<path d="M29094 28740
L29094 29133
" />
<path d="M23582 29133
L23582 28740
" />
<path d="M23976 29133
L23582 29133
" />
<path d="M23582 23622
L23976 23622
" />
<path d="M23582 24015
L23582 23622
" />
<path d="M29094 16141
L29094 16535
" />
<path d="M28700 16141
L29094 16141
" />
<path d="M29094 21653
L28700 21653
" />
<path d="M29094 21259
L29094 21653
" />
<path d="M23582 21653
L23582 21259
" />
<path d="M23976 21653
L23582 21653
" />
<path d="M23582 16141
L23976 16141
" />
<path d="M23582 16535
L23582 16141
" />
<path d="M29094 8661
L29094 9055
" />
<path d="M28700 8661
L29094 8661
" />
<path d="M29094 14173
L28700 14173
" />
<path d="M29094 13779
L29094 14173
" />
<path d="M23582 14173
L23582 13779
" />
<path d="M23976 14173
L23582 14173
" />
<path d="M23582 8661
L23976 8661
" />
<path d="M23582 9055
L23582 8661
" />
<path d="M29094 1181
L29094 1574
" />
<path d="M28700 1181
L29094 1181
" />
<path d="M29094 6692
L28700 6692
" />
<path d="M29094 6299
L29094 6692
" />
<path d="M23582 6692
L23582 6299
" />
<path d="M23976 6692
L23582 6692
" />
<path d="M23582 1181
L23976 1181
" />
<path d="M23582 1574
L23582 1181
" />
<path d="M41777 29823
L41777 29430
" />
<path d="M41552 29823
L41721 29598
" />
<path d="M41552 29430
L41777 29655
" />
<path d="M41177 29823
L41402 29823
" />
<path d="M41289 29823
L41289 29430
L41327 29486
L41364 29523
L41402 29542
" />
<path d="M41027 29467
L41008 29448
L40971 29430
L40877 29430
L40839 29448
L40821 29467
L40802 29505
L40802 29542
L40821 29598
L41046 29823
L40802 29823
" />
<path d="M41589 22343
L41589 21949
" />
<path d="M41364 22343
L41533 22118
" />
<path d="M41364 21949
L41589 22174
" />
<path d="M41177 22343
L41102 22343
L41064 22324
L41046 22305
L41008 22249
L40989 22174
L40989 22024
L41008 21987
L41027 21968
L41064 21949
L41139 21949
L41177 21968
L41196 21987
L41214 22024
L41214 22118
L41196 22155
L41177 22174
L41139 22193
L41064 22193
L41027 22174
L41008 22155
L40989 22118
" />
<path d="M41589 14863
L41589 14469
" />
<path d="M41364 14863
L41533 14638
" />
<path d="M41364 14469
L41589 14694
" />
<path d="M41027 14469
L41102 14469
L41139 14488
L41158 14506
L41196 14563
L41214 14638
L41214 14788
L41196 14825
L41177 14844
L41139 14863
L41064 14863
L41027 14844
L41008 14825
L40989 14788
L40989 14694
L41008 14656
L41027 14638
L41064 14619
L41139 14619
L41177 14638
L41196 14656
L41214 14694
" />
<path d="M41589 7382
L41589 6989
" />
<path d="M41364 7382
L41533 7157
" />
<path d="M41364 6989
L41589 7214
" />
<path d="M41233 6989
L40989 6989
L41121 7139
L41064 7139
L41027 7157
L41008 7176
L40989 7214
L40989 7307
L41008 7345
L41027 7364
L41064 7382
L41177 7382
L41214 7364
L41233 7345
" />
<path d="M34296 29823
L34296 29430
" />
<path d="M34071 29823
L34240 29598
" />
<path d="M34071 29430
L34296 29655
" />
<path d="M33697 29823
L33922 29823
" />
<path d="M33809 29823
L33809 29430
L33847 29486
L33884 29523
L33922 29542
" />
<path d="M33322 29823
L33547 29823
" />
<path d="M33434 29823
L33434 29430
L33472 29486
L33509 29523
L33547 29542
" />
<path d="M34109 22343
L34109 21949
" />
<path d="M33884 22343
L34053 22118
" />
<path d="M33884 21949
L34109 22174
" />
<path d="M33659 22118
L33697 22099
L33715 22080
L33734 22043
L33734 22024
L33715 21987
L33697 21968
L33659 21949
L33584 21949
L33547 21968
L33528 21987
L33509 22024
L33509 22043
L33528 22080
L33547 22099
L33584 22118
L33659 22118
L33697 22137
L33715 22155
L33734 22193
L33734 22268
L33715 22305
L33697 22324
L33659 22343
L33584 22343
L33547 22324
L33528 22305
L33509 22268
L33509 22193
L33528 22155
L33547 22137
L33584 22118
" />
<path d="M34109 14863
L34109 14469
" />
<path d="M33884 14863
L34053 14638
" />
<path d="M33884 14469
L34109 14694
" />
<path d="M33528 14469
L33715 14469
L33734 14656
L33715 14638
L33678 14619
L33584 14619
L33547 14638
L33528 14656
L33509 14694
L33509 14788
L33528 14825
L33547 14844
L33584 14863
L33678 14863
L33715 14844
L33734 14825
" />
<path d="M34109 7382
L34109 6989
" />
<path d="M33884 7382
L34053 7157
" />
<path d="M33884 6989
L34109 7214
" />
<path d="M33734 7026
L33715 7007
L33678 6989
L33584 6989
L33547 7007
L33528 7026
L33509 7064
L33509 7101
L33528 7157
L33753 7382
L33509 7382
" />
<path d="M26816 29823
L26816 29430
" />
<path d="M26591 29823
L26760 29598
" />
<path d="M26591 29430
L26816 29655
" />
<path d="M26216 29823
L26441 29823
" />
<path d="M26329 29823
L26329 29430
L26366 29486
L26404 29523
L26441 29542
" />
<path d="M25973 29430
L25935 29430
L25898 29448
L25879 29467
L25860 29505
L25841 29580
L25841 29673
L25860 29748
L25879 29786
L25898 29805
L25935 29823
L25973 29823
L26010 29805
L26029 29786
L26047 29748
L26066 29673
L26066 29580
L26047 29505
L26029 29467
L26010 29448
L25973 29430
" />
<path d="M26629 22343
L26629 21949
" />
<path d="M26404 22343
L26572 22118
" />
<path d="M26404 21949
L26629 22174
" />
<path d="M26272 21949
L26010 21949
L26179 22343
" />
<path d="M26629 14863
L26629 14469
" />
<path d="M26404 14863
L26572 14638
" />
<path d="M26404 14469
L26629 14694
" />
<path d="M26066 14600
L26066 14863
" />
<path d="M26160 14450
L26254 14731
L26010 14731
" />
<path d="M26629 7382
L26629 6989
" />
<path d="M26404 7382
L26572 7157
" />
<path d="M26404 6989
L26629 7214
" />
<path d="M26029 7382
L26254 7382
" />
<path d="M26141 7382
L26141 6989
L26179 7045
L26216 7082
L26254 7101
" />
<g >
</g>
</g> 
</svg>
