<?xml version="1.0" standalone="no"?>
 <!DOCTYPE svg PUBLIC "-//W3C//DTD SVG 1.1//EN" 
 "http://www.w3.org/Graphics/SVG/1.1/DTD/svg11.dtd"> 
<svg xmlns="http://www.w3.org/2000/svg" version="1.1" 
    width="29.7002cm" height="21.0007cm" viewBox="0 0 116930 82680 ">
<title>SVG Picture created as TestProject-F_SilkS.svg date 2020/02/17 17:07:12 </title>
  <desc>Picture generated by PCBNEW </desc>
<g style="fill:#000000; fill-opacity:1;stroke:#000000; stroke-opacity:1;
stroke-linecap:round; stroke-linejoin:round; "
 transform="translate(0 0) scale(1 1)">
</g>
<g style="fill:#000000; fill-opacity:0.0; 
stroke:#000000; stroke-width:-0.000393701; stroke-opacity:1; 
stroke-linecap:round; stroke-linejoin:round;">
</g>
<g style="fill:#000000; fill-opacity:0.0; 
stroke:#000000; stroke-width:47.2441; stroke-opacity:1; 
stroke-linecap:round; stroke-linejoin:round;">
<path d="M6870 28228
L6673 28228
" />
<path d="M6870 28228
L6870 26240
" />
<path d="M6870 26240
L6673 26240
" />
<path d="M2834 26240
L2834 28228
" />
<path d="M2834 26240
L3031 26240
" />
<path d="M2834 28228
L3031 28228
" />
<path d="M6850 23208
L6653 23208
" />
<path d="M6850 21220
L6653 21220
" />
<path d="M6850 23208
L6850 21220
" />
<path d="M2854 21220
L3051 21220
" />
<path d="M2854 23208
L3051 23208
" />
<path d="M2854 21220
L2854 23208
" />
<path d="M4862 22204
L4862 22106
" />
<path d="M4842 27244
L4842 27440
" />
<path d="M3858 27244
L4842 27244
" />
<path d="M3858 27244
L3858 27440
" />
<path d="M3858 22204
L3858 22007
" />
<path d="M5846 22204
L5846 22007
" />
<path d="M3858 22204
L5846 22204
" />
</g>
<g style="fill:#000000; fill-opacity:0.0; 
stroke:#000000; stroke-width:59.0551; stroke-opacity:1; 
stroke-linecap:round; stroke-linejoin:round;">
<path d="M6163 28316
L6138 28304
L6102 28304
L6065 28316
L6041 28341
L6029 28365
L6017 28414
L6017 28450
L6029 28499
L6041 28524
L6065 28548
L6102 28560
L6126 28560
L6163 28548
L6175 28536
L6175 28450
L6126 28450
" />
<path d="M6285 28560
L6285 28304
L6431 28560
L6431 28304
" />
<path d="M6553 28560
L6553 28304
L6614 28304
L6650 28316
L6675 28341
L6687 28365
L6699 28414
L6699 28450
L6687 28499
L6675 28524
L6650 28548
L6614 28560
L6553 28560
" />
<path d="M3005 28304
L3090 28560
L3175 28304
" />
<path d="M3407 28536
L3395 28548
L3358 28560
L3334 28560
L3297 28548
L3273 28524
L3261 28499
L3248 28450
L3248 28414
L3261 28365
L3273 28341
L3297 28316
L3334 28304
L3358 28304
L3395 28316
L3407 28329
" />
<path d="M3663 28536
L3651 28548
L3614 28560
L3590 28560
L3553 28548
L3529 28524
L3517 28499
L3504 28450
L3504 28414
L3517 28365
L3529 28341
L3553 28316
L3590 28304
L3614 28304
L3651 28316
L3663 28329
" />
<path d="M4033 28580
L4033 28324
L4131 28324
L4155 28336
L4167 28348
L4179 28373
L4179 28409
L4167 28434
L4155 28446
L4131 28458
L4033 28458
" />
<path d="M4289 28580
L4289 28324
L4350 28324
L4386 28336
L4411 28360
L4423 28385
L4435 28434
L4435 28470
L4423 28519
L4411 28543
L4386 28568
L4350 28580
L4289 28580
" />
<path d="M4533 28348
L4545 28336
L4569 28324
L4630 28324
L4655 28336
L4667 28348
L4679 28373
L4679 28397
L4667 28434
L4520 28580
L4679 28580
" />
<path d="M5159 20445
L5305 20445
" />
<path d="M5232 20701
L5232 20445
" />
<path d="M5366 20445
L5537 20701
" />
<path d="M5537 20445
L5366 20701
" />
<path d="M5189 21144
L5067 21144
L5067 20888
" />
<path d="M5275 21010
L5360 21010
" />
<path d="M5396 21144
L5275 21144
L5275 20888
L5396 20888
" />
<path d="M5506 21144
L5506 20888
L5567 20888
L5604 20900
L5628 20924
L5640 20949
L5652 20998
L5652 21034
L5640 21083
L5628 21107
L5604 21132
L5567 21144
L5506 21144
" />
<path d="M4307 20701
L4222 20579
" />
<path d="M4161 20701
L4161 20445
L4258 20445
L4283 20457
L4295 20469
L4307 20494
L4307 20530
L4295 20555
L4283 20567
L4258 20579
L4161 20579
" />
<path d="M4393 20445
L4563 20701
" />
<path d="M4563 20445
L4393 20701
" />
<path d="M4185 21144
L4064 21144
L4064 20888
" />
<path d="M4271 21010
L4356 21010
" />
<path d="M4393 21144
L4271 21144
L4271 20888
L4393 20888
" />
<path d="M4502 21144
L4502 20888
L4563 20888
L4600 20900
L4624 20924
L4636 20949
L4648 20998
L4648 21034
L4636 21083
L4624 21107
L4600 21132
L4563 21144
L4502 21144
" />
<path d="M6047 15713
L6084 15726
L6145 15726
L6169 15713
L6181 15701
L6193 15677
L6193 15652
L6181 15628
L6169 15616
L6145 15604
L6096 15591
L6071 15579
L6059 15567
L6047 15543
L6047 15518
L6059 15494
L6071 15482
L6096 15470
L6157 15470
L6193 15482
" />
<path d="M6303 15726
L6303 15470
L6364 15470
L6400 15482
L6425 15506
L6437 15531
L6449 15579
L6449 15616
L6437 15665
L6425 15689
L6400 15713
L6364 15726
L6303 15726
" />
<path d="M6547 15652
L6669 15652
" />
<path d="M6522 15726
L6608 15470
L6693 15726
" />
<path d="M5029 15713
L5066 15726
L5127 15726
L5151 15713
L5164 15701
L5176 15677
L5176 15652
L5164 15628
L5151 15616
L5127 15604
L5078 15591
L5054 15579
L5042 15567
L5029 15543
L5029 15518
L5042 15494
L5054 15482
L5078 15470
L5139 15470
L5176 15482
" />
<path d="M5432 15701
L5419 15713
L5383 15726
L5359 15726
L5322 15713
L5298 15689
L5285 15665
L5273 15616
L5273 15579
L5285 15531
L5298 15506
L5322 15482
L5359 15470
L5383 15470
L5419 15482
L5432 15494
" />
<path d="M5663 15726
L5541 15726
L5541 15470
" />
<path d="M2985 20883
L3070 21139
L3156 20883
" />
<path d="M3387 21115
L3375 21127
L3338 21139
L3314 21139
L3278 21127
L3253 21102
L3241 21078
L3229 21029
L3229 20993
L3241 20944
L3253 20920
L3278 20895
L3314 20883
L3338 20883
L3375 20895
L3387 20907
" />
<path d="M3643 21115
L3631 21127
L3594 21139
L3570 21139
L3533 21127
L3509 21102
L3497 21078
L3485 21029
L3485 20993
L3497 20944
L3509 20920
L3533 20895
L3570 20883
L3594 20883
L3631 20895
L3643 20907
" />
<path d="M6163 20895
L6138 20883
L6102 20883
L6065 20895
L6041 20920
L6029 20944
L6017 20993
L6017 21029
L6029 21078
L6041 21102
L6065 21127
L6102 21139
L6126 21139
L6163 21127
L6175 21115
L6175 21029
L6126 21029
" />
<path d="M6285 21139
L6285 20883
L6431 21139
L6431 20883
" />
<path d="M6553 21139
L6553 20883
L6614 20883
L6650 20895
L6675 20920
L6687 20944
L6699 20993
L6699 21029
L6687 21078
L6675 21102
L6650 21127
L6614 21139
L6553 21139
" />
<path d="M4009 15470
L4094 15726
L4179 15470
" />
<path d="M4411 15701
L4399 15713
L4362 15726
L4338 15726
L4301 15713
L4277 15689
L4265 15665
L4252 15616
L4252 15579
L4265 15531
L4277 15506
L4301 15482
L4338 15470
L4362 15470
L4399 15482
L4411 15494
" />
<path d="M4667 15701
L4655 15713
L4618 15726
L4594 15726
L4557 15713
L4533 15689
L4520 15665
L4508 15616
L4508 15579
L4520 15531
L4533 15506
L4557 15482
L4594 15470
L4618 15470
L4655 15482
L4667 15494
" />
<path d="M3151 15482
L3127 15470
L3090 15470
L3053 15482
L3029 15506
L3017 15531
L3005 15579
L3005 15616
L3017 15665
L3029 15689
L3053 15713
L3090 15726
L3114 15726
L3151 15713
L3163 15701
L3163 15616
L3114 15616
" />
<path d="M3273 15726
L3273 15470
L3419 15726
L3419 15470
" />
<path d="M3541 15726
L3541 15470
L3602 15470
L3638 15482
L3663 15506
L3675 15531
L3687 15579
L3687 15616
L3675 15665
L3663 15689
L3638 15713
L3602 15726
L3541 15726
" />
</g>
<g style="fill:#000000; fill-opacity:0.0; 
stroke:#000000; stroke-width:47.2441; stroke-opacity:1; 
stroke-linecap:round; stroke-linejoin:round;">
<path d="M1102 11614
L1102 11929
" />
<path d="M1417 11614
L1102 11614
" />
<circle cx="11771.7" cy="26378" r="1181.76" /> 
<path d="M9566 28818
L13976 28818
" />
<path d="M13976 27047
L13976 28818
" />
<path d="M9566 27047
L9566 28818
" />
<path d="M9566 24212
L9566 25708
" />
<path d="M13976 24212
L13976 25708
" />
<path d="M13228 24212
L13976 24212
" />
<path d="M11377 24212
L12165 24212
" />
<path d="M9566 24212
L10354 24212
" />
<circle cx="11771.7" cy="15157.5" r="1181.76" /> 
<path d="M9566 17598
L13976 17598
" />
<path d="M13976 15826
L13976 17598
" />
<path d="M9566 15826
L9566 17598
" />
<path d="M9566 12992
L9566 14488
" />
<path d="M13976 12992
L13976 14488
" />
<path d="M13228 12992
L13976 12992
" />
<path d="M11377 12992
L12165 12992
" />
<path d="M9566 12992
L10354 12992
" />
<circle cx="11771.7" cy="3976.38" r="1181.76" /> 
<path d="M9566 6417
L13976 6417
" />
<path d="M13976 4645
L13976 6417
" />
<path d="M9566 4645
L9566 6417
" />
<path d="M9566 1811
L9566 3307
" />
<path d="M13976 1811
L13976 3307
" />
<path d="M13228 1811
L13976 1811
" />
<path d="M11377 1811
L12165 1811
" />
<path d="M9566 1811
L10354 1811
" />
</g>
<g style="fill:#000000; fill-opacity:0.0; 
stroke:#000000; stroke-width:59.0551; stroke-opacity:1; 
stroke-linecap:round; stroke-linejoin:round;">
<path d="M7723 9566
L7535 9379
" />
<path d="M4842 12448
L4654 12260
" />
<path d="M1961 9566
L2149 9754
" />
<path d="M4842 6685
L5016 6859
" />
<path d="M1961 9566
L2149 9379
" />
<path d="M4842 12448
L5030 12260
" />
<path d="M7723 9566
L7535 9754
" />
<path d="M4842 6685
L4668 6859
" />
</g>
<g style="fill:#000000; fill-opacity:0.0; 
stroke:#000000; stroke-width:47.2441; stroke-opacity:1; 
stroke-linecap:round; stroke-linejoin:round;">
<circle cx="4842.52" cy="7339.82" r="62.2496" /> 
<path d="M19562 28193
L19492 28263
" />
<path d="M19743 28012
L19812 27943
" />
</g>
<g style="fill:#000000; fill-opacity:1.0; 
stroke:#000000; stroke-width:39.3701; stroke-opacity:1; 
stroke-linecap:round; stroke-linejoin:round;">
<path style="fill:#000000; fill-opacity:1.0; 
stroke:#000000; stroke-width:39.3701; stroke-opacity:1; 
stroke-linecap:round; stroke-linejoin:round;fill-rule:evenodd;"
d="M 19715,28263
19687,28291
19464,28068
19492,28040
Z" /> 
<path style="fill:#000000; fill-opacity:1.0; 
stroke:#000000; stroke-width:39.3701; stroke-opacity:1; 
stroke-linecap:round; stroke-linejoin:round;fill-rule:evenodd;"
d="M 19617,28138
19840,28138
19617,27915
Z" /> 
</g>
<g style="fill:#000000; fill-opacity:1.0; 
stroke:#000000; stroke-width:47.2441; stroke-opacity:1; 
stroke-linecap:round; stroke-linejoin:round;">
</g>
<g style="fill:#000000; fill-opacity:0.0; 
stroke:#000000; stroke-width:47.2441; stroke-opacity:1; 
stroke-linecap:round; stroke-linejoin:round;">
<path d="M19562 26461
L19492 26531
" />
<path d="M19743 26280
L19812 26210
" />
</g>
<g style="fill:#000000; fill-opacity:1.0; 
stroke:#000000; stroke-width:39.3701; stroke-opacity:1; 
stroke-linecap:round; stroke-linejoin:round;">
<path style="fill:#000000; fill-opacity:1.0; 
stroke:#000000; stroke-width:39.3701; stroke-opacity:1; 
stroke-linecap:round; stroke-linejoin:round;fill-rule:evenodd;"
d="M 19715,26531
19687,26558
19464,26336
19492,26308
Z" /> 
<path style="fill:#000000; fill-opacity:1.0; 
stroke:#000000; stroke-width:39.3701; stroke-opacity:1; 
stroke-linecap:round; stroke-linejoin:round;fill-rule:evenodd;"
d="M 19617,26405
19840,26405
19617,26183
Z" /> 
</g>
<g style="fill:#000000; fill-opacity:1.0; 
stroke:#000000; stroke-width:47.2441; stroke-opacity:1; 
stroke-linecap:round; stroke-linejoin:round;">
</g>
<g style="fill:#000000; fill-opacity:0.0; 
stroke:#000000; stroke-width:47.2441; stroke-opacity:1; 
stroke-linecap:round; stroke-linejoin:round;">
<path d="M19562 24729
L19492 24798
" />
<path d="M19743 24548
L19812 24478
" />
</g>
<g style="fill:#000000; fill-opacity:1.0; 
stroke:#000000; stroke-width:39.3701; stroke-opacity:1; 
stroke-linecap:round; stroke-linejoin:round;">
<path style="fill:#000000; fill-opacity:1.0; 
stroke:#000000; stroke-width:39.3701; stroke-opacity:1; 
stroke-linecap:round; stroke-linejoin:round;fill-rule:evenodd;"
d="M 19715,24798
19687,24826
19464,24603
19492,24576
Z" /> 
<path style="fill:#000000; fill-opacity:1.0; 
stroke:#000000; stroke-width:39.3701; stroke-opacity:1; 
stroke-linecap:round; stroke-linejoin:round;fill-rule:evenodd;"
d="M 19617,24673
19840,24673
19617,24450
Z" /> 
</g>
<g style="fill:#000000; fill-opacity:1.0; 
stroke:#000000; stroke-width:47.2441; stroke-opacity:1; 
stroke-linecap:round; stroke-linejoin:round;">
</g>
<g style="fill:#000000; fill-opacity:0.0; 
stroke:#000000; stroke-width:47.2441; stroke-opacity:1; 
stroke-linecap:round; stroke-linejoin:round;">
<path d="M19562 20713
L19492 20783
" />
<path d="M19743 20532
L19812 20462
" />
</g>
<g style="fill:#000000; fill-opacity:1.0; 
stroke:#000000; stroke-width:39.3701; stroke-opacity:1; 
stroke-linecap:round; stroke-linejoin:round;">
<path style="fill:#000000; fill-opacity:1.0; 
stroke:#000000; stroke-width:39.3701; stroke-opacity:1; 
stroke-linecap:round; stroke-linejoin:round;fill-rule:evenodd;"
d="M 19715,20783
19687,20810
19464,20588
19492,20560
Z" /> 
<path style="fill:#000000; fill-opacity:1.0; 
stroke:#000000; stroke-width:39.3701; stroke-opacity:1; 
stroke-linecap:round; stroke-linejoin:round;fill-rule:evenodd;"
d="M 19617,20657
19840,20657
19617,20435
Z" /> 
</g>
<g style="fill:#000000; fill-opacity:1.0; 
stroke:#000000; stroke-width:47.2441; stroke-opacity:1; 
stroke-linecap:round; stroke-linejoin:round;">
</g>
<g style="fill:#000000; fill-opacity:0.0; 
stroke:#000000; stroke-width:47.2441; stroke-opacity:1; 
stroke-linecap:round; stroke-linejoin:round;">
<path d="M19562 18981
L19492 19050
" />
<path d="M19743 18800
L19812 18730
" />
</g>
<g style="fill:#000000; fill-opacity:1.0; 
stroke:#000000; stroke-width:39.3701; stroke-opacity:1; 
stroke-linecap:round; stroke-linejoin:round;">
<path style="fill:#000000; fill-opacity:1.0; 
stroke:#000000; stroke-width:39.3701; stroke-opacity:1; 
stroke-linecap:round; stroke-linejoin:round;fill-rule:evenodd;"
d="M 19715,19050
19687,19078
19464,18855
19492,18828
Z" /> 
<path style="fill:#000000; fill-opacity:1.0; 
stroke:#000000; stroke-width:39.3701; stroke-opacity:1; 
stroke-linecap:round; stroke-linejoin:round;fill-rule:evenodd;"
d="M 19617,18925
19840,18925
19617,18702
Z" /> 
</g>
<g style="fill:#000000; fill-opacity:1.0; 
stroke:#000000; stroke-width:47.2441; stroke-opacity:1; 
stroke-linecap:round; stroke-linejoin:round;">
</g>
<g style="fill:#000000; fill-opacity:0.0; 
stroke:#000000; stroke-width:47.2441; stroke-opacity:1; 
stroke-linecap:round; stroke-linejoin:round;">
<path d="M19562 17248
L19492 17318
" />
<path d="M19743 17067
L19812 16998
" />
</g>
<g style="fill:#000000; fill-opacity:1.0; 
stroke:#000000; stroke-width:39.3701; stroke-opacity:1; 
stroke-linecap:round; stroke-linejoin:round;">
<path style="fill:#000000; fill-opacity:1.0; 
stroke:#000000; stroke-width:39.3701; stroke-opacity:1; 
stroke-linecap:round; stroke-linejoin:round;fill-rule:evenodd;"
d="M 19715,17318
19687,17346
19464,17123
19492,17095
Z" /> 
<path style="fill:#000000; fill-opacity:1.0; 
stroke:#000000; stroke-width:39.3701; stroke-opacity:1; 
stroke-linecap:round; stroke-linejoin:round;fill-rule:evenodd;"
d="M 19617,17193
19840,17193
19617,16970
Z" /> 
</g>
<g style="fill:#000000; fill-opacity:1.0; 
stroke:#000000; stroke-width:47.2441; stroke-opacity:1; 
stroke-linecap:round; stroke-linejoin:round;">
</g>
<g style="fill:#000000; fill-opacity:0.0; 
stroke:#000000; stroke-width:47.2441; stroke-opacity:1; 
stroke-linecap:round; stroke-linejoin:round;">
<path d="M19562 13233
L19492 13302
" />
<path d="M19743 13052
L19812 12982
" />
</g>
<g style="fill:#000000; fill-opacity:1.0; 
stroke:#000000; stroke-width:39.3701; stroke-opacity:1; 
stroke-linecap:round; stroke-linejoin:round;">
<path style="fill:#000000; fill-opacity:1.0; 
stroke:#000000; stroke-width:39.3701; stroke-opacity:1; 
stroke-linecap:round; stroke-linejoin:round;fill-rule:evenodd;"
d="M 19715,13302
19687,13330
19464,13107
19492,13080
Z" /> 
<path style="fill:#000000; fill-opacity:1.0; 
stroke:#000000; stroke-width:39.3701; stroke-opacity:1; 
stroke-linecap:round; stroke-linejoin:round;fill-rule:evenodd;"
d="M 19617,13177
19840,13177
19617,12954
Z" /> 
</g>
<g style="fill:#000000; fill-opacity:1.0; 
stroke:#000000; stroke-width:47.2441; stroke-opacity:1; 
stroke-linecap:round; stroke-linejoin:round;">
</g>
<g style="fill:#000000; fill-opacity:0.0; 
stroke:#000000; stroke-width:47.2441; stroke-opacity:1; 
stroke-linecap:round; stroke-linejoin:round;">
<path d="M19562 11500
L19492 11570
" />
<path d="M19743 11319
L19812 11250
" />
</g>
<g style="fill:#000000; fill-opacity:1.0; 
stroke:#000000; stroke-width:39.3701; stroke-opacity:1; 
stroke-linecap:round; stroke-linejoin:round;">
<path style="fill:#000000; fill-opacity:1.0; 
stroke:#000000; stroke-width:39.3701; stroke-opacity:1; 
stroke-linecap:round; stroke-linejoin:round;fill-rule:evenodd;"
d="M 19715,11570
19687,11598
19464,11375
19492,11347
Z" /> 
<path style="fill:#000000; fill-opacity:1.0; 
stroke:#000000; stroke-width:39.3701; stroke-opacity:1; 
stroke-linecap:round; stroke-linejoin:round;fill-rule:evenodd;"
d="M 19617,11445
19840,11445
19617,11222
Z" /> 
</g>
<g style="fill:#000000; fill-opacity:1.0; 
stroke:#000000; stroke-width:47.2441; stroke-opacity:1; 
stroke-linecap:round; stroke-linejoin:round;">
</g>
<g style="fill:#000000; fill-opacity:0.0; 
stroke:#000000; stroke-width:47.2441; stroke-opacity:1; 
stroke-linecap:round; stroke-linejoin:round;">
<path d="M19567 9763
L19497 9832
" />
<path d="M19748 9582
L19818 9512
" />
</g>
<g style="fill:#000000; fill-opacity:1.0; 
stroke:#000000; stroke-width:39.3701; stroke-opacity:1; 
stroke-linecap:round; stroke-linejoin:round;">
<path style="fill:#000000; fill-opacity:1.0; 
stroke:#000000; stroke-width:39.3701; stroke-opacity:1; 
stroke-linecap:round; stroke-linejoin:round;fill-rule:evenodd;"
d="M 19720,9832
19692,9860
19470,9637
19497,9610
Z" /> 
<path style="fill:#000000; fill-opacity:1.0; 
stroke:#000000; stroke-width:39.3701; stroke-opacity:1; 
stroke-linecap:round; stroke-linejoin:round;fill-rule:evenodd;"
d="M 19623,9707
19845,9707
19623,9484
Z" /> 
</g>
<g style="fill:#000000; fill-opacity:1.0; 
stroke:#000000; stroke-width:47.2441; stroke-opacity:1; 
stroke-linecap:round; stroke-linejoin:round;">
</g>
<g style="fill:#000000; fill-opacity:0.0; 
stroke:#000000; stroke-width:47.2441; stroke-opacity:1; 
stroke-linecap:round; stroke-linejoin:round;">
<path d="M19562 5752
L19492 5822
" />
<path d="M19743 5571
L19812 5502
" />
</g>
<g style="fill:#000000; fill-opacity:1.0; 
stroke:#000000; stroke-width:39.3701; stroke-opacity:1; 
stroke-linecap:round; stroke-linejoin:round;">
<path style="fill:#000000; fill-opacity:1.0; 
stroke:#000000; stroke-width:39.3701; stroke-opacity:1; 
stroke-linecap:round; stroke-linejoin:round;fill-rule:evenodd;"
d="M 19715,5822
19687,5850
19464,5627
19492,5599
Z" /> 
<path style="fill:#000000; fill-opacity:1.0; 
stroke:#000000; stroke-width:39.3701; stroke-opacity:1; 
stroke-linecap:round; stroke-linejoin:round;fill-rule:evenodd;"
d="M 19617,5697
19840,5697
19617,5474
Z" /> 
</g>
<g style="fill:#000000; fill-opacity:1.0; 
stroke:#000000; stroke-width:47.2441; stroke-opacity:1; 
stroke-linecap:round; stroke-linejoin:round;">
</g>
<g style="fill:#000000; fill-opacity:0.0; 
stroke:#000000; stroke-width:47.2441; stroke-opacity:1; 
stroke-linecap:round; stroke-linejoin:round;">
<path d="M19562 4020
L19492 4090
" />
<path d="M19743 3839
L19812 3769
" />
</g>
<g style="fill:#000000; fill-opacity:1.0; 
stroke:#000000; stroke-width:39.3701; stroke-opacity:1; 
stroke-linecap:round; stroke-linejoin:round;">
<path style="fill:#000000; fill-opacity:1.0; 
stroke:#000000; stroke-width:39.3701; stroke-opacity:1; 
stroke-linecap:round; stroke-linejoin:round;fill-rule:evenodd;"
d="M 19715,4090
19687,4117
19464,3895
19492,3867
Z" /> 
<path style="fill:#000000; fill-opacity:1.0; 
stroke:#000000; stroke-width:39.3701; stroke-opacity:1; 
stroke-linecap:round; stroke-linejoin:round;fill-rule:evenodd;"
d="M 19617,3964
19840,3964
19617,3742
Z" /> 
</g>
<g style="fill:#000000; fill-opacity:1.0; 
stroke:#000000; stroke-width:47.2441; stroke-opacity:1; 
stroke-linecap:round; stroke-linejoin:round;">
</g>
<g style="fill:#000000; fill-opacity:0.0; 
stroke:#000000; stroke-width:47.2441; stroke-opacity:1; 
stroke-linecap:round; stroke-linejoin:round;">
<path d="M19562 2288
L19492 2357
" />
<path d="M19743 2107
L19812 2037
" />
</g>
<g style="fill:#000000; fill-opacity:1.0; 
stroke:#000000; stroke-width:39.3701; stroke-opacity:1; 
stroke-linecap:round; stroke-linejoin:round;">
<path style="fill:#000000; fill-opacity:1.0; 
stroke:#000000; stroke-width:39.3701; stroke-opacity:1; 
stroke-linecap:round; stroke-linejoin:round;fill-rule:evenodd;"
d="M 19715,2357
19687,2385
19464,2162
19492,2135
Z" /> 
<path style="fill:#000000; fill-opacity:1.0; 
stroke:#000000; stroke-width:39.3701; stroke-opacity:1; 
stroke-linecap:round; stroke-linejoin:round;fill-rule:evenodd;"
d="M 19617,2232
19840,2232
19617,2009
Z" /> 
</g>
<g style="fill:#000000; fill-opacity:1.0; 
stroke:#000000; stroke-width:47.2441; stroke-opacity:1; 
stroke-linecap:round; stroke-linejoin:round;">
</g>
<g style="fill:#000000; fill-opacity:0.0; 
stroke:#000000; stroke-width:47.2441; stroke-opacity:1; 
stroke-linecap:round; stroke-linejoin:round;">
<path d="M3274 6923
L3419 6778
" />
<path d="M2879 6528
L3024 6383
" />
<path d="M1502 8695
L1648 8550
" />
<path d="M1107 8300
L1253 8154
" />
<path d="M4295 4591
L4295 4385
" />
<path d="M3736 4591
L3736 4385
" />
<path d="M5354 18248
L4370 18248
" />
<path d="M5944 17559
L5944 16771
" />
<path d="M5354 16082
L4370 16082
" />
<path d="M3779 17559
L3779 16771
" />
<path d="M5531 18070
L5354 18248
" />
<path d="M4192 18070
L4370 18248
" />
<path d="M4192 16259
L4370 16082
" />
<path d="M5531 16259
L5354 16082
" />
<path d="M8550 10939
L8695 10794
" />
<path d="M8154 10544
L8300 10398
" />
<path d="M5948 4591
L5948 4385
" />
<path d="M5389 4591
L5389 4385
" />
<path d="M5122 4591
L5122 4385
" />
<path d="M4562 4591
L4562 4385
" />
<path d="M1825 13500
L1619 13500
" />
<path d="M1825 14059
L1619 14059
" />
<path d="M1687 10583
L1542 10438
" />
<path d="M1292 10979
L1146 10833
" />
<path d="M6265 6778
L6410 6923
" />
<path d="M6660 6383
L6805 6528
" />
<path d="M4739 13566
L4945 13566
" />
<path d="M4739 13007
L4945 13007
" />
<path d="M8577 8300
L8432 8154
" />
<path d="M8182 8695
L8036 8550
" />
<path d="M4945 13795
L4739 13795
" />
<path d="M4945 14354
L4739 14354
" />
</g>
<g style="fill:#000000; fill-opacity:0.0; 
stroke:#000000; stroke-width:59.0551; stroke-opacity:1; 
stroke-linecap:round; stroke-linejoin:round;">
<path d="M11246 26537
L11302 26556
L11396 26556
L11434 26537
L11452 26518
L11471 26481
L11471 26443
L11452 26406
L11434 26387
L11396 26368
L11321 26349
L11284 26331
L11265 26312
L11246 26274
L11246 26237
L11265 26199
L11284 26181
L11321 26162
L11415 26162
L11471 26181
" />
<path d="M11602 26162
L11696 26556
L11771 26274
L11846 26556
L11940 26162
" />
<path d="M12259 26293
L12259 26556
" />
<path d="M12165 26143
L12071 26424
L12315 26424
" />
<path d="M11246 15316
L11302 15335
L11396 15335
L11434 15316
L11452 15298
L11471 15260
L11471 15223
L11452 15185
L11434 15166
L11396 15148
L11321 15129
L11284 15110
L11265 15091
L11246 15054
L11246 15016
L11265 14979
L11284 14960
L11321 14941
L11415 14941
L11471 14960
" />
<path d="M11602 14941
L11696 15335
L11771 15054
L11846 15335
L11940 14941
" />
<path d="M12052 14941
L12296 14941
L12165 15091
L12221 15091
L12259 15110
L12277 15129
L12296 15166
L12296 15260
L12277 15298
L12259 15316
L12221 15335
L12109 15335
L12071 15316
L12052 15298
" />
<path d="M11246 4135
L11302 4154
L11396 4154
L11434 4135
L11452 4116
L11471 4079
L11471 4041
L11452 4004
L11434 3985
L11396 3967
L11321 3948
L11284 3929
L11265 3910
L11246 3873
L11246 3835
L11265 3798
L11284 3779
L11321 3760
L11415 3760
L11471 3779
" />
<path d="M11602 3760
L11696 4154
L11771 3873
L11846 4154
L11940 3760
" />
<path d="M12071 3798
L12090 3779
L12127 3760
L12221 3760
L12259 3779
L12277 3798
L12296 3835
L12296 3873
L12277 3929
L12052 4154
L12296 4154
" />
<path d="M4660 9410
L4660 9729
L4679 9766
L4698 9785
L4735 9804
L4810 9804
L4848 9785
L4866 9766
L4885 9729
L4885 9410
" />
<path d="M5279 9804
L5054 9804
" />
<path d="M5166 9804
L5166 9410
L5129 9466
L5091 9504
L5054 9522
" />
<g >
</g>
</g> 
</svg>
