<?xml version="1.0" standalone="no"?>
 <!DOCTYPE svg PUBLIC "-//W3C//DTD SVG 1.1//EN" 
 "http://www.w3.org/Graphics/SVG/1.1/DTD/svg11.dtd"> 
<svg xmlns="http://www.w3.org/2000/svg" version="1.1" 
    width="29.7002cm" height="21.0007cm" viewBox="0 0 116930 82680 ">
<title>SVG Picture created as TestProject-F_Paste.svg date 2020/02/17 17:07:12 </title>
  <desc>Picture generated by PCBNEW </desc>
<g style="fill:#000000; fill-opacity:1;stroke:#000000; stroke-opacity:1;
stroke-linecap:round; stroke-linejoin:round; "
 transform="translate(0 0) scale(1 1)">
</g>
<g style="fill:#000000; fill-opacity:0.0; 
stroke:#000000; stroke-width:-0.000393701; stroke-opacity:1; 
stroke-linecap:round; stroke-linejoin:round;">
<g >
</g>
<g style="fill:#000000; fill-opacity:0.0; 
stroke:#000000; stroke-width:0; stroke-opacity:1; 
stroke-linecap:round; stroke-linejoin:round;">
</g>
<g style="fill:#000000; fill-opacity:1.0; 
stroke:#000000; stroke-width:0; stroke-opacity:1; 
stroke-linecap:round; stroke-linejoin:round;">
<path style="fill:#000000; fill-opacity:1.0; 
stroke:#000000; stroke-width:0; stroke-opacity:1; 
stroke-linecap:round; stroke-linejoin:round;fill-rule:evenodd;"
d="M 1811,11692
2283,11692
2283,12244
1811,12244
1811,11692
Z" /> 
<path style="fill:#000000; fill-opacity:1.0; 
stroke:#000000; stroke-width:0; stroke-opacity:1; 
stroke-linecap:round; stroke-linejoin:round;fill-rule:evenodd;"
d="M 1811,12559
2283,12559
2283,13110
1811,13110
1811,12559
Z" /> 
<path style="fill:#000000; fill-opacity:1.0; 
stroke:#000000; stroke-width:0; stroke-opacity:1; 
stroke-linecap:round; stroke-linejoin:round;fill-rule:evenodd;"
d="M 1181,12559
1653,12559
1653,13110
1181,13110
1181,12559
Z" /> 
<path style="fill:#000000; fill-opacity:1.0; 
stroke:#000000; stroke-width:0; stroke-opacity:1; 
stroke-linecap:round; stroke-linejoin:round;fill-rule:evenodd;"
d="M 1181,11692
1653,11692
1653,12244
1181,12244
1181,11692
Z" /> 
</g>
<g >
</g>
<g style="fill:#000000; fill-opacity:1.0; 
stroke:#000000; stroke-width:0; stroke-opacity:1; 
stroke-linecap:round; stroke-linejoin:round;">
<path style="fill:#000000; fill-opacity:1.0; 
stroke:#000000; stroke-width:0; stroke-opacity:1; 
stroke-linecap:round; stroke-linejoin:round;fill-rule:evenodd;"
d="M 5570,2677
5570,3385
5374,3385
5374,2677
5570,2677
Z" /> 
<path style="fill:#000000; fill-opacity:1.0; 
stroke:#000000; stroke-width:0; stroke-opacity:1; 
stroke-linecap:round; stroke-linejoin:round;fill-rule:evenodd;"
d="M 5255,2677
5255,3385
5059,3385
5059,2677
5255,2677
Z" /> 
<path style="fill:#000000; fill-opacity:1.0; 
stroke:#000000; stroke-width:0; stroke-opacity:1; 
stroke-linecap:round; stroke-linejoin:round;fill-rule:evenodd;"
d="M 4940,2677
4940,3385
4744,3385
4744,2677
4940,2677
Z" /> 
<path style="fill:#000000; fill-opacity:1.0; 
stroke:#000000; stroke-width:0; stroke-opacity:1; 
stroke-linecap:round; stroke-linejoin:round;fill-rule:evenodd;"
d="M 4625,2677
4625,3385
4429,3385
4429,2677
4625,2677
Z" /> 
<path style="fill:#000000; fill-opacity:1.0; 
stroke:#000000; stroke-width:0; stroke-opacity:1; 
stroke-linecap:round; stroke-linejoin:round;fill-rule:evenodd;"
d="M 4311,2677
4311,3385
4114,3385
4114,2677
4311,2677
Z" /> 
<path style="fill:#000000; fill-opacity:1.0; 
stroke:#000000; stroke-width:0; stroke-opacity:1; 
stroke-linecap:round; stroke-linejoin:round;fill-rule:evenodd;"
d="M 6988,2480
6988,3307
6003,3307
6003,2480
6988,2480
Z" /> 
<path style="fill:#000000; fill-opacity:1.0; 
stroke:#000000; stroke-width:0; stroke-opacity:1; 
stroke-linecap:round; stroke-linejoin:round;fill-rule:evenodd;"
d="M 3681,2480
3681,3307
2696,3307
2696,2480
3681,2480
Z" /> 
<path style="fill:#000000; fill-opacity:1.0; 
stroke:#000000; stroke-width:0; stroke-opacity:1; 
stroke-linecap:round; stroke-linejoin:round;fill-rule:evenodd;"
d="M 3681,295
3681,1122
2696,1122
2696,295
3681,295
Z" /> 
<path style="fill:#000000; fill-opacity:1.0; 
stroke:#000000; stroke-width:0; stroke-opacity:1; 
stroke-linecap:round; stroke-linejoin:round;fill-rule:evenodd;"
d="M 6988,295
6988,1122
6003,1122
6003,295
6988,295
Z" /> 
</g>
<g >
</g>
<g >
</g>
<g >
</g>
<g >
</g>
<g >
</g>
<g >
</g>
<g >
</g>
<g >
</g>
<g >
</g>
<g >
</g>
<g >
</g>
<g >
</g>
<g >
</g>
<g >
</g>
<g >
</g>
<g >
</g>
<g >
</g>
<g style="fill:#000000; fill-opacity:1.0; 
stroke:#000000; stroke-width:0; stroke-opacity:1; 
stroke-linecap:round; stroke-linejoin:round;">
<path style="fill:#000000; fill-opacity:1.0; 
stroke:#000000; stroke-width:0; stroke-opacity:1; 
stroke-linecap:round; stroke-linejoin:round;fill-rule:evenodd;"
d="M 5183,7151
5030,6998
5448,6581
5601,6734
5183,7151
Z" /> 
<path style="fill:#000000; fill-opacity:1.0; 
stroke:#000000; stroke-width:0; stroke-opacity:1; 
stroke-linecap:round; stroke-linejoin:round;fill-rule:evenodd;"
d="M 5406,7374
5253,7221
5670,6803
5823,6957
5406,7374
Z" /> 
<path style="fill:#000000; fill-opacity:1.0; 
stroke:#000000; stroke-width:0; stroke-opacity:1; 
stroke-linecap:round; stroke-linejoin:round;fill-rule:evenodd;"
d="M 5628,7597
5475,7444
5893,7026
6046,7179
5628,7597
Z" /> 
<path style="fill:#000000; fill-opacity:1.0; 
stroke:#000000; stroke-width:0; stroke-opacity:1; 
stroke-linecap:round; stroke-linejoin:round;fill-rule:evenodd;"
d="M 5851,7820
5698,7666
6116,7249
6269,7402
5851,7820
Z" /> 
<path style="fill:#000000; fill-opacity:1.0; 
stroke:#000000; stroke-width:0; stroke-opacity:1; 
stroke-linecap:round; stroke-linejoin:round;fill-rule:evenodd;"
d="M 6074,8042
5921,7889
6338,7472
6491,7625
6074,8042
Z" /> 
<path style="fill:#000000; fill-opacity:1.0; 
stroke:#000000; stroke-width:0; stroke-opacity:1; 
stroke-linecap:round; stroke-linejoin:round;fill-rule:evenodd;"
d="M 6297,8265
6143,8112
6561,7694
6714,7847
6297,8265
Z" /> 
<path style="fill:#000000; fill-opacity:1.0; 
stroke:#000000; stroke-width:0; stroke-opacity:1; 
stroke-linecap:round; stroke-linejoin:round;fill-rule:evenodd;"
d="M 6519,8488
6366,8335
6784,7917
6937,8070
6519,8488
Z" /> 
<path style="fill:#000000; fill-opacity:1.0; 
stroke:#000000; stroke-width:0; stroke-opacity:1; 
stroke-linecap:round; stroke-linejoin:round;fill-rule:evenodd;"
d="M 6742,8710
6589,8557
7006,8140
7160,8293
6742,8710
Z" /> 
<path style="fill:#000000; fill-opacity:1.0; 
stroke:#000000; stroke-width:0; stroke-opacity:1; 
stroke-linecap:round; stroke-linejoin:round;fill-rule:evenodd;"
d="M 6965,8933
6812,8780
7229,8362
7382,8516
6965,8933
Z" /> 
<path style="fill:#000000; fill-opacity:1.0; 
stroke:#000000; stroke-width:0; stroke-opacity:1; 
stroke-linecap:round; stroke-linejoin:round;fill-rule:evenodd;"
d="M 7187,9156
7034,9003
7452,8585
7605,8738
7187,9156
Z" /> 
<path style="fill:#000000; fill-opacity:1.0; 
stroke:#000000; stroke-width:0; stroke-opacity:1; 
stroke-linecap:round; stroke-linejoin:round;fill-rule:evenodd;"
d="M 7410,9379
7257,9225
7675,8808
7828,8961
7410,9379
Z" /> 
<path style="fill:#000000; fill-opacity:1.0; 
stroke:#000000; stroke-width:0; stroke-opacity:1; 
stroke-linecap:round; stroke-linejoin:round;fill-rule:evenodd;"
d="M 7257,9907
7410,9754
7828,10172
7675,10325
7257,9907
Z" /> 
<path style="fill:#000000; fill-opacity:1.0; 
stroke:#000000; stroke-width:0; stroke-opacity:1; 
stroke-linecap:round; stroke-linejoin:round;fill-rule:evenodd;"
d="M 7034,10130
7187,9977
7605,10395
7452,10548
7034,10130
Z" /> 
<path style="fill:#000000; fill-opacity:1.0; 
stroke:#000000; stroke-width:0; stroke-opacity:1; 
stroke-linecap:round; stroke-linejoin:round;fill-rule:evenodd;"
d="M 6812,10353
6965,10200
7382,10617
7229,10770
6812,10353
Z" /> 
<path style="fill:#000000; fill-opacity:1.0; 
stroke:#000000; stroke-width:0; stroke-opacity:1; 
stroke-linecap:round; stroke-linejoin:round;fill-rule:evenodd;"
d="M 6589,10576
6742,10422
7160,10840
7006,10993
6589,10576
Z" /> 
<path style="fill:#000000; fill-opacity:1.0; 
stroke:#000000; stroke-width:0; stroke-opacity:1; 
stroke-linecap:round; stroke-linejoin:round;fill-rule:evenodd;"
d="M 6366,10798
6519,10645
6937,11063
6784,11216
6366,10798
Z" /> 
<path style="fill:#000000; fill-opacity:1.0; 
stroke:#000000; stroke-width:0; stroke-opacity:1; 
stroke-linecap:round; stroke-linejoin:round;fill-rule:evenodd;"
d="M 6143,11021
6297,10868
6714,11285
6561,11439
6143,11021
Z" /> 
<path style="fill:#000000; fill-opacity:1.0; 
stroke:#000000; stroke-width:0; stroke-opacity:1; 
stroke-linecap:round; stroke-linejoin:round;fill-rule:evenodd;"
d="M 5921,11244
6074,11091
6491,11508
6338,11661
5921,11244
Z" /> 
<path style="fill:#000000; fill-opacity:1.0; 
stroke:#000000; stroke-width:0; stroke-opacity:1; 
stroke-linecap:round; stroke-linejoin:round;fill-rule:evenodd;"
d="M 5698,11466
5851,11313
6269,11731
6116,11884
5698,11466
Z" /> 
<path style="fill:#000000; fill-opacity:1.0; 
stroke:#000000; stroke-width:0; stroke-opacity:1; 
stroke-linecap:round; stroke-linejoin:round;fill-rule:evenodd;"
d="M 5475,11689
5628,11536
6046,11954
5893,12107
5475,11689
Z" /> 
<path style="fill:#000000; fill-opacity:1.0; 
stroke:#000000; stroke-width:0; stroke-opacity:1; 
stroke-linecap:round; stroke-linejoin:round;fill-rule:evenodd;"
d="M 5253,11912
5406,11759
5823,12176
5670,12329
5253,11912
Z" /> 
<path style="fill:#000000; fill-opacity:1.0; 
stroke:#000000; stroke-width:0; stroke-opacity:1; 
stroke-linecap:round; stroke-linejoin:round;fill-rule:evenodd;"
d="M 5030,12135
5183,11981
5601,12399
5448,12552
5030,12135
Z" /> 
<path style="fill:#000000; fill-opacity:1.0; 
stroke:#000000; stroke-width:0; stroke-opacity:1; 
stroke-linecap:round; stroke-linejoin:round;fill-rule:evenodd;"
d="M 4237,12552
4083,12399
4501,11981
4654,12135
4237,12552
Z" /> 
<path style="fill:#000000; fill-opacity:1.0; 
stroke:#000000; stroke-width:0; stroke-opacity:1; 
stroke-linecap:round; stroke-linejoin:round;fill-rule:evenodd;"
d="M 4014,12329
3861,12176
4278,11759
4431,11912
4014,12329
Z" /> 
<path style="fill:#000000; fill-opacity:1.0; 
stroke:#000000; stroke-width:0; stroke-opacity:1; 
stroke-linecap:round; stroke-linejoin:round;fill-rule:evenodd;"
d="M 3791,12107
3638,11954
4056,11536
4209,11689
3791,12107
Z" /> 
<path style="fill:#000000; fill-opacity:1.0; 
stroke:#000000; stroke-width:0; stroke-opacity:1; 
stroke-linecap:round; stroke-linejoin:round;fill-rule:evenodd;"
d="M 3568,11884
3415,11731
3833,11313
3986,11466
3568,11884
Z" /> 
<path style="fill:#000000; fill-opacity:1.0; 
stroke:#000000; stroke-width:0; stroke-opacity:1; 
stroke-linecap:round; stroke-linejoin:round;fill-rule:evenodd;"
d="M 3346,11661
3193,11508
3610,11091
3763,11244
3346,11661
Z" /> 
<path style="fill:#000000; fill-opacity:1.0; 
stroke:#000000; stroke-width:0; stroke-opacity:1; 
stroke-linecap:round; stroke-linejoin:round;fill-rule:evenodd;"
d="M 3123,11439
2970,11285
3387,10868
3541,11021
3123,11439
Z" /> 
<path style="fill:#000000; fill-opacity:1.0; 
stroke:#000000; stroke-width:0; stroke-opacity:1; 
stroke-linecap:round; stroke-linejoin:round;fill-rule:evenodd;"
d="M 2900,11216
2747,11063
3165,10645
3318,10798
2900,11216
Z" /> 
<path style="fill:#000000; fill-opacity:1.0; 
stroke:#000000; stroke-width:0; stroke-opacity:1; 
stroke-linecap:round; stroke-linejoin:round;fill-rule:evenodd;"
d="M 2678,10993
2524,10840
2942,10422
3095,10576
2678,10993
Z" /> 
<path style="fill:#000000; fill-opacity:1.0; 
stroke:#000000; stroke-width:0; stroke-opacity:1; 
stroke-linecap:round; stroke-linejoin:round;fill-rule:evenodd;"
d="M 2455,10770
2302,10617
2719,10200
2872,10353
2455,10770
Z" /> 
<path style="fill:#000000; fill-opacity:1.0; 
stroke:#000000; stroke-width:0; stroke-opacity:1; 
stroke-linecap:round; stroke-linejoin:round;fill-rule:evenodd;"
d="M 2232,10548
2079,10395
2497,9977
2650,10130
2232,10548
Z" /> 
<path style="fill:#000000; fill-opacity:1.0; 
stroke:#000000; stroke-width:0; stroke-opacity:1; 
stroke-linecap:round; stroke-linejoin:round;fill-rule:evenodd;"
d="M 2009,10325
1856,10172
2274,9754
2427,9907
2009,10325
Z" /> 
<path style="fill:#000000; fill-opacity:1.0; 
stroke:#000000; stroke-width:0; stroke-opacity:1; 
stroke-linecap:round; stroke-linejoin:round;fill-rule:evenodd;"
d="M 1856,8961
2009,8808
2427,9225
2274,9379
1856,8961
Z" /> 
<path style="fill:#000000; fill-opacity:1.0; 
stroke:#000000; stroke-width:0; stroke-opacity:1; 
stroke-linecap:round; stroke-linejoin:round;fill-rule:evenodd;"
d="M 2079,8738
2232,8585
2650,9003
2497,9156
2079,8738
Z" /> 
<path style="fill:#000000; fill-opacity:1.0; 
stroke:#000000; stroke-width:0; stroke-opacity:1; 
stroke-linecap:round; stroke-linejoin:round;fill-rule:evenodd;"
d="M 2302,8516
2455,8362
2872,8780
2719,8933
2302,8516
Z" /> 
<path style="fill:#000000; fill-opacity:1.0; 
stroke:#000000; stroke-width:0; stroke-opacity:1; 
stroke-linecap:round; stroke-linejoin:round;fill-rule:evenodd;"
d="M 2524,8293
2678,8140
3095,8557
2942,8710
2524,8293
Z" /> 
<path style="fill:#000000; fill-opacity:1.0; 
stroke:#000000; stroke-width:0; stroke-opacity:1; 
stroke-linecap:round; stroke-linejoin:round;fill-rule:evenodd;"
d="M 2747,8070
2900,7917
3318,8335
3165,8488
2747,8070
Z" /> 
<path style="fill:#000000; fill-opacity:1.0; 
stroke:#000000; stroke-width:0; stroke-opacity:1; 
stroke-linecap:round; stroke-linejoin:round;fill-rule:evenodd;"
d="M 2970,7847
3123,7694
3541,8112
3387,8265
2970,7847
Z" /> 
<path style="fill:#000000; fill-opacity:1.0; 
stroke:#000000; stroke-width:0; stroke-opacity:1; 
stroke-linecap:round; stroke-linejoin:round;fill-rule:evenodd;"
d="M 3193,7625
3346,7472
3763,7889
3610,8042
3193,7625
Z" /> 
<path style="fill:#000000; fill-opacity:1.0; 
stroke:#000000; stroke-width:0; stroke-opacity:1; 
stroke-linecap:round; stroke-linejoin:round;fill-rule:evenodd;"
d="M 3415,7402
3568,7249
3986,7666
3833,7820
3415,7402
Z" /> 
<path style="fill:#000000; fill-opacity:1.0; 
stroke:#000000; stroke-width:0; stroke-opacity:1; 
stroke-linecap:round; stroke-linejoin:round;fill-rule:evenodd;"
d="M 3638,7179
3791,7026
4209,7444
4056,7597
3638,7179
Z" /> 
<path style="fill:#000000; fill-opacity:1.0; 
stroke:#000000; stroke-width:0; stroke-opacity:1; 
stroke-linecap:round; stroke-linejoin:round;fill-rule:evenodd;"
d="M 3861,6957
4014,6803
4431,7221
4278,7374
3861,6957
Z" /> 
<path style="fill:#000000; fill-opacity:1.0; 
stroke:#000000; stroke-width:0; stroke-opacity:1; 
stroke-linecap:round; stroke-linejoin:round;fill-rule:evenodd;"
d="M 4083,6734
4237,6581
4654,6998
4501,7151
4083,6734
Z" /> 
</g>
<g >
</g>
<g >
</g>
<g >
</g>
<g >
</g>
<g >
</g>
<g >
</g>
<g >
</g>
<g >
</g>
<g >
</g>
<g >
</g>
<g >
</g>
<g >
</g>
<g >
</g>
<g >
</g>
<g >
</g>
<g >
</g>
<g >
</g>
<g >
</g>
<g >
</g>
<g >
</g>
<g >
</g>
<g >
</g>
<g >
</g>
<g >
</g>
<g >
</g>
<g >
</g>
<g >
</g>
<g style="fill:#000000; fill-opacity:1.0; 
stroke:#000000; stroke-width:0; stroke-opacity:1; 
stroke-linecap:round; stroke-linejoin:round;">
<path style="fill:#000000; fill-opacity:1.0; 
stroke:#000000; stroke-width:0; stroke-opacity:1; 
stroke-linecap:round; stroke-linejoin:round;fill-rule:evenodd;"
d="M 19207,28882
18873,28548
19207,28214
19541,28548
19207,28882
Z" /> 
<path style="fill:#000000; fill-opacity:1.0; 
stroke:#000000; stroke-width:0; stroke-opacity:1; 
stroke-linecap:round; stroke-linejoin:round;fill-rule:evenodd;"
d="M 20084,28005
19750,27671
20084,27337
20418,27671
20084,28005
Z" /> 
</g>
<g >
</g>
<g style="fill:#000000; fill-opacity:1.0; 
stroke:#000000; stroke-width:0; stroke-opacity:1; 
stroke-linecap:round; stroke-linejoin:round;">
<path style="fill:#000000; fill-opacity:1.0; 
stroke:#000000; stroke-width:0; stroke-opacity:1; 
stroke-linecap:round; stroke-linejoin:round;fill-rule:evenodd;"
d="M 19207,27150
18873,26816
19207,26482
19541,26816
19207,27150
Z" /> 
<path style="fill:#000000; fill-opacity:1.0; 
stroke:#000000; stroke-width:0; stroke-opacity:1; 
stroke-linecap:round; stroke-linejoin:round;fill-rule:evenodd;"
d="M 20084,26273
19750,25939
20084,25605
20418,25939
20084,26273
Z" /> 
</g>
<g >
</g>
<g style="fill:#000000; fill-opacity:1.0; 
stroke:#000000; stroke-width:0; stroke-opacity:1; 
stroke-linecap:round; stroke-linejoin:round;">
<path style="fill:#000000; fill-opacity:1.0; 
stroke:#000000; stroke-width:0; stroke-opacity:1; 
stroke-linecap:round; stroke-linejoin:round;fill-rule:evenodd;"
d="M 19207,25418
18873,25084
19207,24750
19541,25084
19207,25418
Z" /> 
<path style="fill:#000000; fill-opacity:1.0; 
stroke:#000000; stroke-width:0; stroke-opacity:1; 
stroke-linecap:round; stroke-linejoin:round;fill-rule:evenodd;"
d="M 20084,24541
19750,24207
20084,23873
20418,24207
20084,24541
Z" /> 
</g>
<g >
</g>
<g style="fill:#000000; fill-opacity:1.0; 
stroke:#000000; stroke-width:0; stroke-opacity:1; 
stroke-linecap:round; stroke-linejoin:round;">
<path style="fill:#000000; fill-opacity:1.0; 
stroke:#000000; stroke-width:0; stroke-opacity:1; 
stroke-linecap:round; stroke-linejoin:round;fill-rule:evenodd;"
d="M 19207,21402
18873,21068
19207,20734
19541,21068
19207,21402
Z" /> 
<path style="fill:#000000; fill-opacity:1.0; 
stroke:#000000; stroke-width:0; stroke-opacity:1; 
stroke-linecap:round; stroke-linejoin:round;fill-rule:evenodd;"
d="M 20084,20525
19750,20191
20084,19857
20418,20191
20084,20525
Z" /> 
</g>
<g >
</g>
<g style="fill:#000000; fill-opacity:1.0; 
stroke:#000000; stroke-width:0; stroke-opacity:1; 
stroke-linecap:round; stroke-linejoin:round;">
<path style="fill:#000000; fill-opacity:1.0; 
stroke:#000000; stroke-width:0; stroke-opacity:1; 
stroke-linecap:round; stroke-linejoin:round;fill-rule:evenodd;"
d="M 19207,19670
18873,19336
19207,19002
19541,19336
19207,19670
Z" /> 
<path style="fill:#000000; fill-opacity:1.0; 
stroke:#000000; stroke-width:0; stroke-opacity:1; 
stroke-linecap:round; stroke-linejoin:round;fill-rule:evenodd;"
d="M 20084,18793
19750,18459
20084,18125
20418,18459
20084,18793
Z" /> 
</g>
<g >
</g>
<g style="fill:#000000; fill-opacity:1.0; 
stroke:#000000; stroke-width:0; stroke-opacity:1; 
stroke-linecap:round; stroke-linejoin:round;">
<path style="fill:#000000; fill-opacity:1.0; 
stroke:#000000; stroke-width:0; stroke-opacity:1; 
stroke-linecap:round; stroke-linejoin:round;fill-rule:evenodd;"
d="M 19207,17937
18873,17603
19207,17269
19541,17603
19207,17937
Z" /> 
<path style="fill:#000000; fill-opacity:1.0; 
stroke:#000000; stroke-width:0; stroke-opacity:1; 
stroke-linecap:round; stroke-linejoin:round;fill-rule:evenodd;"
d="M 20084,17060
19750,16726
20084,16392
20418,16726
20084,17060
Z" /> 
</g>
<g >
</g>
<g style="fill:#000000; fill-opacity:1.0; 
stroke:#000000; stroke-width:0; stroke-opacity:1; 
stroke-linecap:round; stroke-linejoin:round;">
<path style="fill:#000000; fill-opacity:1.0; 
stroke:#000000; stroke-width:0; stroke-opacity:1; 
stroke-linecap:round; stroke-linejoin:round;fill-rule:evenodd;"
d="M 19207,13922
18873,13588
19207,13254
19541,13588
19207,13922
Z" /> 
<path style="fill:#000000; fill-opacity:1.0; 
stroke:#000000; stroke-width:0; stroke-opacity:1; 
stroke-linecap:round; stroke-linejoin:round;fill-rule:evenodd;"
d="M 20084,13045
19750,12711
20084,12377
20418,12711
20084,13045
Z" /> 
</g>
<g >
</g>
<g style="fill:#000000; fill-opacity:1.0; 
stroke:#000000; stroke-width:0; stroke-opacity:1; 
stroke-linecap:round; stroke-linejoin:round;">
<path style="fill:#000000; fill-opacity:1.0; 
stroke:#000000; stroke-width:0; stroke-opacity:1; 
stroke-linecap:round; stroke-linejoin:round;fill-rule:evenodd;"
d="M 19207,12189
18873,11855
19207,11521
19541,11855
19207,12189
Z" /> 
<path style="fill:#000000; fill-opacity:1.0; 
stroke:#000000; stroke-width:0; stroke-opacity:1; 
stroke-linecap:round; stroke-linejoin:round;fill-rule:evenodd;"
d="M 20084,11312
19750,10978
20084,10644
20418,10978
20084,11312
Z" /> 
</g>
<g >
</g>
<g style="fill:#000000; fill-opacity:1.0; 
stroke:#000000; stroke-width:0; stroke-opacity:1; 
stroke-linecap:round; stroke-linejoin:round;">
<path style="fill:#000000; fill-opacity:1.0; 
stroke:#000000; stroke-width:0; stroke-opacity:1; 
stroke-linecap:round; stroke-linejoin:round;fill-rule:evenodd;"
d="M 19212,10452
18878,10118
19212,9784
19546,10118
19212,10452
Z" /> 
<path style="fill:#000000; fill-opacity:1.0; 
stroke:#000000; stroke-width:0; stroke-opacity:1; 
stroke-linecap:round; stroke-linejoin:round;fill-rule:evenodd;"
d="M 20089,9575
19755,9241
20089,8907
20423,9241
20089,9575
Z" /> 
</g>
<g >
</g>
<g style="fill:#000000; fill-opacity:1.0; 
stroke:#000000; stroke-width:0; stroke-opacity:1; 
stroke-linecap:round; stroke-linejoin:round;">
<path style="fill:#000000; fill-opacity:1.0; 
stroke:#000000; stroke-width:0; stroke-opacity:1; 
stroke-linecap:round; stroke-linejoin:round;fill-rule:evenodd;"
d="M 19207,6441
18873,6107
19207,5773
19541,6107
19207,6441
Z" /> 
<path style="fill:#000000; fill-opacity:1.0; 
stroke:#000000; stroke-width:0; stroke-opacity:1; 
stroke-linecap:round; stroke-linejoin:round;fill-rule:evenodd;"
d="M 20084,5564
19750,5230
20084,4896
20418,5230
20084,5564
Z" /> 
</g>
<g >
</g>
<g style="fill:#000000; fill-opacity:1.0; 
stroke:#000000; stroke-width:0; stroke-opacity:1; 
stroke-linecap:round; stroke-linejoin:round;">
<path style="fill:#000000; fill-opacity:1.0; 
stroke:#000000; stroke-width:0; stroke-opacity:1; 
stroke-linecap:round; stroke-linejoin:round;fill-rule:evenodd;"
d="M 19207,4709
18873,4375
19207,4041
19541,4375
19207,4709
Z" /> 
<path style="fill:#000000; fill-opacity:1.0; 
stroke:#000000; stroke-width:0; stroke-opacity:1; 
stroke-linecap:round; stroke-linejoin:round;fill-rule:evenodd;"
d="M 20084,3832
19750,3498
20084,3164
20418,3498
20084,3832
Z" /> 
</g>
<g >
</g>
<g style="fill:#000000; fill-opacity:1.0; 
stroke:#000000; stroke-width:0; stroke-opacity:1; 
stroke-linecap:round; stroke-linejoin:round;">
<path style="fill:#000000; fill-opacity:1.0; 
stroke:#000000; stroke-width:0; stroke-opacity:1; 
stroke-linecap:round; stroke-linejoin:round;fill-rule:evenodd;"
d="M 19207,2977
18873,2643
19207,2309
19541,2643
19207,2977
Z" /> 
<path style="fill:#000000; fill-opacity:1.0; 
stroke:#000000; stroke-width:0; stroke-opacity:1; 
stroke-linecap:round; stroke-linejoin:round;fill-rule:evenodd;"
d="M 20084,2100
19750,1766
20084,1432
20418,1766
20084,2100
Z" /> 
</g>
<g >
</g>
<g >
</g>
<g style="fill:#000000; fill-opacity:1.0; 
stroke:#000000; stroke-width:0; stroke-opacity:1; 
stroke-linecap:round; stroke-linejoin:round;">
<path style="fill:#000000; fill-opacity:1.0; 
stroke:#000000; stroke-width:0; stroke-opacity:1; 
stroke-linecap:round; stroke-linejoin:round;fill-rule:evenodd;"
d="M 3409,6054
3419,6055
3428,6058
3437,6061
3446,6065
3454,6070
3462,6076
3469,6082
3720,6333
3726,6340
3732,6348
3737,6356
3741,6365
3744,6374
3747,6383
3748,6393
3749,6402
3748,6412
3747,6422
3744,6431
3741,6440
3737,6449
3732,6457
3726,6465
3720,6472
3539,6653
3532,6660
3524,6665
3516,6670
3507,6674
3498,6678
3488,6680
3479,6681
3469,6682
3460,6681
3450,6680
3441,6678
3432,6674
3423,6670
3415,6665
3407,6660
3400,6653
3149,6402
3143,6395
3137,6388
3132,6379
3128,6371
3125,6361
3122,6352
3121,6343
3120,6333
3121,6323
3122,6314
3125,6304
3128,6295
3132,6286
3137,6278
3143,6270
3149,6263
3330,6082
3337,6076
3345,6070
3353,6065
3362,6061
3371,6058
3380,6055
3390,6054
3400,6054
3409,6054
Z" /> 
<path style="fill:#000000; fill-opacity:1.0; 
stroke:#000000; stroke-width:0; stroke-opacity:1; 
stroke-linecap:round; stroke-linejoin:round;fill-rule:evenodd;"
d="M 2839,6625
2848,6626
2858,6628
2867,6632
2875,6636
2884,6641
2891,6647
2899,6653
3149,6904
3156,6911
3161,6919
3166,6927
3170,6936
3174,6945
3176,6954
3177,6964
3178,6973
3177,6983
3176,6992
3174,7002
3170,7011
3166,7020
3161,7028
3156,7036
3149,7043
2968,7224
2961,7230
2953,7236
2945,7241
2936,7245
2927,7248
2918,7251
2908,7252
2899,7253
2889,7252
2879,7251
2870,7248
2861,7245
2852,7241
2844,7236
2836,7230
2829,7224
2578,6973
2572,6966
2566,6958
2561,6950
2557,6941
2554,6932
2551,6923
2550,6913
2550,6904
2550,6894
2551,6884
2554,6875
2557,6866
2561,6857
2566,6849
2572,6841
2578,6834
2759,6653
2767,6647
2774,6641
2783,6636
2791,6632
2800,6628
2810,6626
2819,6625
2829,6624
2839,6625
Z" /> 
</g>
<g >
</g>
<g >
</g>
<g >
</g>
<g >
</g>
<g >
</g>
<g >
</g>
<g >
</g>
<g >
</g>
<g >
</g>
<g >
</g>
<g >
</g>
<g >
</g>
<g >
</g>
<g >
</g>
<g >
</g>
<g >
</g>
<g >
</g>
<g >
</g>
<g >
</g>
<g >
</g>
<g style="fill:#000000; fill-opacity:1.0; 
stroke:#000000; stroke-width:0; stroke-opacity:1; 
stroke-linecap:round; stroke-linejoin:round;">
<path style="fill:#000000; fill-opacity:1.0; 
stroke:#000000; stroke-width:0; stroke-opacity:1; 
stroke-linecap:round; stroke-linejoin:round;fill-rule:evenodd;"
d="M 1638,7826
1647,7827
1657,7829
1666,7833
1674,7837
1683,7842
1690,7848
1698,7854
1948,8105
1955,8112
1960,8119
1965,8128
1969,8136
1973,8146
1975,8155
1977,8165
1977,8174
1977,8184
1975,8193
1973,8203
1969,8212
1965,8221
1960,8229
1955,8237
1948,8244
1767,8425
1760,8431
1752,8437
1744,8442
1735,8446
1726,8449
1717,8452
1707,8453
1698,8454
1688,8453
1678,8452
1669,8449
1660,8446
1651,8442
1643,8437
1635,8431
1628,8425
1377,8174
1371,8167
1365,8159
1360,8151
1356,8142
1353,8133
1351,8124
1349,8114
1349,8105
1349,8095
1351,8085
1353,8076
1356,8067
1360,8058
1365,8050
1371,8042
1377,8035
1558,7854
1566,7848
1573,7842
1582,7837
1590,7833
1599,7829
1609,7827
1618,7826
1628,7825
1638,7826
Z" /> 
<path style="fill:#000000; fill-opacity:1.0; 
stroke:#000000; stroke-width:0; stroke-opacity:1; 
stroke-linecap:round; stroke-linejoin:round;fill-rule:evenodd;"
d="M 1067,8396
1077,8398
1086,8400
1095,8403
1104,8407
1112,8412
1120,8418
1127,8425
1377,8675
1384,8682
1390,8690
1395,8698
1399,8707
1402,8716
1404,8726
1406,8735
1406,8745
1406,8754
1404,8764
1402,8773
1399,8783
1395,8791
1390,8800
1384,8807
1377,8814
1197,8995
1189,9002
1182,9008
1173,9013
1165,9017
1155,9020
1146,9022
1137,9024
1127,9024
1117,9024
1108,9022
1098,9020
1089,9017
1081,9013
1072,9008
1064,9002
1057,8995
807,8745
800,8738
795,8730
790,8722
785,8713
782,8704
780,8694
778,8685
778,8675
778,8666
780,8656
782,8647
785,8638
790,8629
795,8621
800,8613
807,8606
988,8425
995,8418
1003,8412
1011,8407
1020,8403
1029,8400
1038,8398
1048,8396
1057,8396
1067,8396
Z" /> 
</g>
<g >
</g>
<g style="fill:#000000; fill-opacity:1.0; 
stroke:#000000; stroke-width:0; stroke-opacity:1; 
stroke-linecap:round; stroke-linejoin:round;">
<path style="fill:#000000; fill-opacity:1.0; 
stroke:#000000; stroke-width:0; stroke-opacity:1; 
stroke-linecap:round; stroke-linejoin:round;fill-rule:evenodd;"
d="M 4202,3858
4212,3860
4221,3862
4230,3865
4239,3869
4247,3874
4255,3880
4262,3887
4268,3894
4274,3902
4279,3910
4283,3919
4287,3928
4289,3937
4290,3947
4291,3956
4291,4212
4290,4222
4289,4231
4287,4241
4283,4250
4279,4258
4274,4267
4268,4275
4262,4282
4255,4288
4247,4294
4239,4299
4230,4303
4221,4306
4212,4309
4202,4310
4192,4311
3838,4311
3828,4310
3819,4309
3810,4306
3800,4303
3792,4299
3783,4294
3776,4288
3768,4282
3762,4275
3756,4267
3751,4258
3747,4250
3744,4241
3742,4231
3740,4222
3740,4212
3740,3956
3740,3947
3742,3937
3744,3928
3747,3919
3751,3910
3756,3902
3762,3894
3768,3887
3776,3880
3783,3874
3792,3869
3800,3865
3810,3862
3819,3860
3828,3858
3838,3858
4192,3858
4202,3858
Z" /> 
<path style="fill:#000000; fill-opacity:1.0; 
stroke:#000000; stroke-width:0; stroke-opacity:1; 
stroke-linecap:round; stroke-linejoin:round;fill-rule:evenodd;"
d="M 4202,4665
4212,4667
4221,4669
4230,4672
4239,4676
4247,4681
4255,4687
4262,4694
4268,4701
4274,4709
4279,4717
4283,4726
4287,4735
4289,4744
4290,4754
4291,4763
4291,5019
4290,5029
4289,5038
4287,5048
4283,5057
4279,5066
4274,5074
4268,5082
4262,5089
4255,5095
4247,5101
4239,5106
4230,5110
4221,5113
4212,5116
4202,5117
4192,5118
3838,5118
3828,5117
3819,5116
3810,5113
3800,5110
3792,5106
3783,5101
3776,5095
3768,5089
3762,5082
3756,5074
3751,5066
3747,5057
3744,5048
3742,5038
3740,5029
3740,5019
3740,4763
3740,4754
3742,4744
3744,4735
3747,4726
3751,4717
3756,4709
3762,4701
3768,4694
3776,4687
3783,4681
3792,4676
3800,4672
3810,4669
3819,4667
3828,4665
3838,4665
4192,4665
4202,4665
Z" /> 
</g>
<g >
</g>
<g style="fill:#000000; fill-opacity:1.0; 
stroke:#000000; stroke-width:0; stroke-opacity:1; 
stroke-linecap:round; stroke-linejoin:round;">
<path style="fill:#000000; fill-opacity:1.0; 
stroke:#000000; stroke-width:0; stroke-opacity:1; 
stroke-linecap:round; stroke-linejoin:round;fill-rule:evenodd;"
d="M 3956,16220
3956,16614
3287,16614
3287,16220
3956,16220
Z" /> 
<path style="fill:#000000; fill-opacity:1.0; 
stroke:#000000; stroke-width:0; stroke-opacity:1; 
stroke-linecap:round; stroke-linejoin:round;fill-rule:evenodd;"
d="M 6437,16220
6437,16614
5767,16614
5767,16220
6437,16220
Z" /> 
<path style="fill:#000000; fill-opacity:1.0; 
stroke:#000000; stroke-width:0; stroke-opacity:1; 
stroke-linecap:round; stroke-linejoin:round;fill-rule:evenodd;"
d="M 3956,17716
3956,18110
3287,18110
3287,17716
3956,17716
Z" /> 
<path style="fill:#000000; fill-opacity:1.0; 
stroke:#000000; stroke-width:0; stroke-opacity:1; 
stroke-linecap:round; stroke-linejoin:round;fill-rule:evenodd;"
d="M 6437,17716
6437,18110
5767,18110
5767,17716
6437,17716
Z" /> 
</g>
<g >
</g>
<g style="fill:#000000; fill-opacity:1.0; 
stroke:#000000; stroke-width:0; stroke-opacity:1; 
stroke-linecap:round; stroke-linejoin:round;">
<path style="fill:#000000; fill-opacity:1.0; 
stroke:#000000; stroke-width:0; stroke-opacity:1; 
stroke-linecap:round; stroke-linejoin:round;fill-rule:evenodd;"
d="M 8685,10070
8694,10071
8704,10074
8713,10077
8722,10081
8730,10086
8738,10092
8745,10098
8995,10349
9002,10356
9008,10364
9013,10372
9017,10381
9020,10390
9022,10399
9024,10409
9024,10418
9024,10428
9022,10437
9020,10447
9017,10456
9013,10465
9008,10473
9002,10481
8995,10488
8814,10669
8807,10675
8800,10681
8791,10686
8783,10690
8773,10693
8764,10696
8754,10697
8745,10698
8735,10697
8726,10696
8716,10693
8707,10690
8698,10686
8690,10681
8682,10675
8675,10669
8425,10418
8418,10411
8412,10403
8407,10395
8403,10386
8400,10377
8398,10368
8396,10358
8396,10349
8396,10339
8398,10329
8400,10320
8403,10311
8407,10302
8412,10294
8418,10286
8425,10279
8606,10098
8613,10092
8621,10086
8629,10081
8638,10077
8647,10074
8656,10071
8666,10070
8675,10069
8685,10070
Z" /> 
<path style="fill:#000000; fill-opacity:1.0; 
stroke:#000000; stroke-width:0; stroke-opacity:1; 
stroke-linecap:round; stroke-linejoin:round;fill-rule:evenodd;"
d="M 8114,10640
8124,10642
8133,10644
8142,10647
8151,10652
8159,10657
8167,10662
8174,10669
8425,10919
8431,10926
8437,10934
8442,10943
8446,10951
8449,10960
8452,10970
8453,10979
8454,10989
8453,10999
8452,11008
8449,11018
8446,11027
8442,11035
8437,11044
8431,11051
8425,11059
8244,11239
8237,11246
8229,11252
8221,11257
8212,11261
8203,11264
8193,11266
8184,11268
8174,11268
8165,11268
8155,11266
8146,11264
8136,11261
8128,11257
8119,11252
8112,11246
8105,11239
7854,10989
7848,10982
7842,10974
7837,10966
7833,10957
7829,10948
7827,10939
7826,10929
7825,10919
7826,10910
7827,10900
7829,10891
7833,10882
7837,10873
7842,10865
7848,10857
7854,10850
8035,10669
8042,10662
8050,10657
8058,10652
8067,10647
8076,10644
8085,10642
8095,10640
8105,10640
8114,10640
Z" /> 
</g>
<g >
</g>
<g style="fill:#000000; fill-opacity:1.0; 
stroke:#000000; stroke-width:0; stroke-opacity:1; 
stroke-linecap:round; stroke-linejoin:round;">
<path style="fill:#000000; fill-opacity:1.0; 
stroke:#000000; stroke-width:0; stroke-opacity:1; 
stroke-linecap:round; stroke-linejoin:round;fill-rule:evenodd;"
d="M 5856,3858
5865,3860
5875,3862
5884,3865
5892,3869
5901,3874
5908,3880
5916,3887
5922,3894
5928,3902
5933,3910
5937,3919
5940,3928
5942,3937
5944,3947
5944,3956
5944,4212
5944,4222
5942,4231
5940,4241
5937,4250
5933,4258
5928,4267
5922,4275
5916,4282
5908,4288
5901,4294
5892,4299
5884,4303
5875,4306
5865,4309
5856,4310
5846,4311
5492,4311
5482,4310
5472,4309
5463,4306
5454,4303
5445,4299
5437,4294
5429,4288
5422,4282
5416,4275
5410,4267
5405,4258
5401,4250
5397,4241
5395,4231
5394,4222
5393,4212
5393,3956
5394,3947
5395,3937
5397,3928
5401,3919
5405,3910
5410,3902
5416,3894
5422,3887
5429,3880
5437,3874
5445,3869
5454,3865
5463,3862
5472,3860
5482,3858
5492,3858
5846,3858
5856,3858
Z" /> 
<path style="fill:#000000; fill-opacity:1.0; 
stroke:#000000; stroke-width:0; stroke-opacity:1; 
stroke-linecap:round; stroke-linejoin:round;fill-rule:evenodd;"
d="M 5856,4665
5865,4667
5875,4669
5884,4672
5892,4676
5901,4681
5908,4687
5916,4694
5922,4701
5928,4709
5933,4717
5937,4726
5940,4735
5942,4744
5944,4754
5944,4763
5944,5019
5944,5029
5942,5038
5940,5048
5937,5057
5933,5066
5928,5074
5922,5082
5916,5089
5908,5095
5901,5101
5892,5106
5884,5110
5875,5113
5865,5116
5856,5117
5846,5118
5492,5118
5482,5117
5472,5116
5463,5113
5454,5110
5445,5106
5437,5101
5429,5095
5422,5089
5416,5082
5410,5074
5405,5066
5401,5057
5397,5048
5395,5038
5394,5029
5393,5019
5393,4763
5394,4754
5395,4744
5397,4735
5401,4726
5405,4717
5410,4709
5416,4701
5422,4694
5429,4687
5437,4681
5445,4676
5454,4672
5463,4669
5472,4667
5482,4665
5492,4665
5846,4665
5856,4665
Z" /> 
</g>
<g >
</g>
<g style="fill:#000000; fill-opacity:1.0; 
stroke:#000000; stroke-width:0; stroke-opacity:1; 
stroke-linecap:round; stroke-linejoin:round;">
<path style="fill:#000000; fill-opacity:1.0; 
stroke:#000000; stroke-width:0; stroke-opacity:1; 
stroke-linecap:round; stroke-linejoin:round;fill-rule:evenodd;"
d="M 5029,3858
5038,3860
5048,3862
5057,3865
5066,3869
5074,3874
5082,3880
5089,3887
5095,3894
5101,3902
5106,3910
5110,3919
5113,3928
5116,3937
5117,3947
5118,3956
5118,4212
5117,4222
5116,4231
5113,4241
5110,4250
5106,4258
5101,4267
5095,4275
5089,4282
5082,4288
5074,4294
5066,4299
5057,4303
5048,4306
5038,4309
5029,4310
5019,4311
4665,4311
4655,4310
4646,4309
4636,4306
4627,4303
4618,4299
4610,4294
4602,4288
4595,4282
4589,4275
4583,4267
4578,4258
4574,4250
4571,4241
4568,4231
4567,4222
4566,4212
4566,3956
4567,3947
4568,3937
4571,3928
4574,3919
4578,3910
4583,3902
4589,3894
4595,3887
4602,3880
4610,3874
4618,3869
4627,3865
4636,3862
4646,3860
4655,3858
4665,3858
5019,3858
5029,3858
Z" /> 
<path style="fill:#000000; fill-opacity:1.0; 
stroke:#000000; stroke-width:0; stroke-opacity:1; 
stroke-linecap:round; stroke-linejoin:round;fill-rule:evenodd;"
d="M 5029,4665
5038,4667
5048,4669
5057,4672
5066,4676
5074,4681
5082,4687
5089,4694
5095,4701
5101,4709
5106,4717
5110,4726
5113,4735
5116,4744
5117,4754
5118,4763
5118,5019
5117,5029
5116,5038
5113,5048
5110,5057
5106,5066
5101,5074
5095,5082
5089,5089
5082,5095
5074,5101
5066,5106
5057,5110
5048,5113
5038,5116
5029,5117
5019,5118
4665,5118
4655,5117
4646,5116
4636,5113
4627,5110
4618,5106
4610,5101
4602,5095
4595,5089
4589,5082
4583,5074
4578,5066
4574,5057
4571,5048
4568,5038
4567,5029
4566,5019
4566,4763
4567,4754
4568,4744
4571,4735
4574,4726
4578,4717
4583,4709
4589,4701
4595,4694
4602,4687
4610,4681
4618,4676
4627,4672
4636,4669
4646,4667
4655,4665
4665,4665
5019,4665
5029,4665
Z" /> 
</g>
<g >
</g>
<g style="fill:#000000; fill-opacity:1.0; 
stroke:#000000; stroke-width:0; stroke-opacity:1; 
stroke-linecap:round; stroke-linejoin:round;">
<path style="fill:#000000; fill-opacity:1.0; 
stroke:#000000; stroke-width:0; stroke-opacity:1; 
stroke-linecap:round; stroke-linejoin:round;fill-rule:evenodd;"
d="M 1456,13504
1466,13505
1475,13508
1484,13511
1493,13515
1501,13520
1509,13526
1516,13532
1522,13539
1528,13547
1533,13555
1537,13564
1541,13573
1543,13583
1544,13592
1545,13602
1545,13956
1544,13966
1543,13975
1541,13985
1537,13994
1533,14003
1528,14011
1522,14019
1516,14026
1509,14032
1501,14038
1493,14043
1484,14047
1475,14050
1466,14053
1456,14054
1446,14055
1190,14055
1181,14054
1171,14053
1162,14050
1153,14047
1144,14043
1136,14038
1128,14032
1121,14026
1114,14019
1109,14011
1104,14003
1100,13994
1096,13985
1094,13975
1092,13966
1092,13956
1092,13602
1092,13592
1094,13583
1096,13573
1100,13564
1104,13555
1109,13547
1114,13539
1121,13532
1128,13526
1136,13520
1144,13515
1153,13511
1162,13508
1171,13505
1181,13504
1190,13503
1446,13503
1456,13504
Z" /> 
<path style="fill:#000000; fill-opacity:1.0; 
stroke:#000000; stroke-width:0; stroke-opacity:1; 
stroke-linecap:round; stroke-linejoin:round;fill-rule:evenodd;"
d="M 2263,13504
2273,13505
2282,13508
2291,13511
2300,13515
2308,13520
2316,13526
2323,13532
2330,13539
2335,13547
2340,13555
2344,13564
2348,13573
2350,13583
2351,13592
2352,13602
2352,13956
2351,13966
2350,13975
2348,13985
2344,13994
2340,14003
2335,14011
2330,14019
2323,14026
2316,14032
2308,14038
2300,14043
2291,14047
2282,14050
2273,14053
2263,14054
2253,14055
1998,14055
1988,14054
1978,14053
1969,14050
1960,14047
1951,14043
1943,14038
1935,14032
1928,14026
1921,14019
1916,14011
1911,14003
1907,13994
1903,13985
1901,13975
1900,13966
1899,13956
1899,13602
1900,13592
1901,13583
1903,13573
1907,13564
1911,13555
1916,13547
1921,13539
1928,13532
1935,13526
1943,13520
1951,13515
1960,13511
1969,13508
1978,13505
1988,13504
1998,13503
2253,13503
2263,13504
Z" /> 
</g>
<g >
</g>
<g style="fill:#000000; fill-opacity:1.0; 
stroke:#000000; stroke-width:0; stroke-opacity:1; 
stroke-linecap:round; stroke-linejoin:round;">
<path style="fill:#000000; fill-opacity:1.0; 
stroke:#000000; stroke-width:0; stroke-opacity:1; 
stroke-linecap:round; stroke-linejoin:round;fill-rule:evenodd;"
d="M 1176,10109
1185,10111
1195,10113
1204,10116
1213,10120
1221,10125
1229,10131
1236,10137
1417,10318
1423,10326
1429,10333
1434,10342
1438,10350
1441,10359
1444,10369
1445,10378
1446,10388
1445,10398
1444,10407
1441,10417
1438,10426
1434,10434
1429,10443
1423,10450
1417,10458
1166,10708
1159,10715
1151,10720
1143,10725
1134,10729
1125,10733
1116,10735
1106,10737
1097,10737
1087,10737
1077,10735
1068,10733
1059,10729
1050,10725
1042,10720
1034,10715
1027,10708
846,10527
840,10520
834,10512
829,10504
825,10495
822,10486
819,10477
818,10467
817,10458
818,10448
819,10438
822,10429
825,10420
829,10411
834,10403
840,10395
846,10388
1097,10137
1104,10131
1112,10125
1120,10120
1129,10116
1138,10113
1147,10111
1157,10109
1166,10109
1176,10109
Z" /> 
<path style="fill:#000000; fill-opacity:1.0; 
stroke:#000000; stroke-width:0; stroke-opacity:1; 
stroke-linecap:round; stroke-linejoin:round;fill-rule:evenodd;"
d="M 1747,10680
1756,10681
1766,10684
1775,10687
1783,10691
1792,10696
1799,10702
1807,10708
1988,10889
1994,10896
2000,10904
2005,10912
2009,10921
2012,10930
2014,10940
2016,10949
2016,10959
2016,10968
2014,10978
2012,10987
2009,10996
2005,11005
2000,11013
1994,11021
1988,11028
1737,11279
1730,11285
1722,11291
1714,11296
1705,11300
1696,11303
1687,11306
1677,11307
1667,11308
1658,11307
1648,11306
1639,11303
1630,11300
1621,11296
1613,11291
1605,11285
1598,11279
1417,11098
1410,11091
1405,11083
1400,11075
1395,11066
1392,11057
1390,11048
1388,11038
1388,11028
1388,11019
1390,11009
1392,11000
1395,10991
1400,10982
1405,10974
1410,10966
1417,10959
1667,10708
1675,10702
1682,10696
1691,10691
1699,10687
1708,10684
1718,10681
1727,10680
1737,10679
1747,10680
Z" /> 
</g>
<g >
</g>
<g style="fill:#000000; fill-opacity:1.0; 
stroke:#000000; stroke-width:0; stroke-opacity:1; 
stroke-linecap:round; stroke-linejoin:round;">
<path style="fill:#000000; fill-opacity:1.0; 
stroke:#000000; stroke-width:0; stroke-opacity:1; 
stroke-linecap:round; stroke-linejoin:round;fill-rule:evenodd;"
d="M 6865,6625
6874,6626
6884,6628
6893,6632
6901,6636
6910,6641
6918,6647
6925,6653
7106,6834
7112,6841
7118,6849
7123,6857
7127,6866
7130,6875
7133,6884
7134,6894
7134,6904
7134,6913
7133,6923
7130,6932
7127,6941
7123,6950
7118,6958
7112,6966
7106,6973
6855,7224
6848,7230
6840,7236
6832,7241
6823,7245
6814,7248
6805,7251
6795,7252
6785,7253
6776,7252
6766,7251
6757,7248
6748,7245
6739,7241
6731,7236
6723,7230
6716,7224
6535,7043
6528,7036
6523,7028
6518,7020
6514,7011
6510,7002
6508,6992
6507,6983
6506,6973
6507,6964
6508,6954
6510,6945
6514,6936
6518,6927
6523,6919
6528,6911
6535,6904
6785,6653
6793,6647
6800,6641
6809,6636
6817,6632
6827,6628
6836,6626
6845,6625
6855,6624
6865,6625
Z" /> 
<path style="fill:#000000; fill-opacity:1.0; 
stroke:#000000; stroke-width:0; stroke-opacity:1; 
stroke-linecap:round; stroke-linejoin:round;fill-rule:evenodd;"
d="M 6294,6054
6304,6055
6313,6058
6322,6061
6331,6065
6339,6070
6347,6076
6354,6082
6535,6263
6541,6270
6547,6278
6552,6286
6556,6295
6560,6304
6562,6314
6563,6323
6564,6333
6563,6343
6562,6352
6560,6361
6556,6371
6552,6379
6547,6388
6541,6395
6535,6402
6284,6653
6277,6660
6269,6665
6261,6670
6252,6674
6243,6678
6234,6680
6224,6681
6215,6682
6205,6681
6196,6680
6186,6678
6177,6674
6168,6670
6160,6665
6152,6660
6145,6653
5964,6472
5958,6465
5952,6457
5947,6449
5943,6440
5940,6431
5937,6422
5936,6412
5935,6402
5936,6393
5937,6383
5940,6374
5943,6365
5947,6356
5952,6348
5958,6340
5964,6333
6215,6082
6222,6076
6230,6070
6238,6065
6247,6061
6256,6058
6265,6055
6275,6054
6284,6054
6294,6054
Z" /> 
</g>
<g >
</g>
<g style="fill:#000000; fill-opacity:1.0; 
stroke:#000000; stroke-width:0; stroke-opacity:1; 
stroke-linecap:round; stroke-linejoin:round;">
<path style="fill:#000000; fill-opacity:1.0; 
stroke:#000000; stroke-width:0; stroke-opacity:1; 
stroke-linecap:round; stroke-linejoin:round;fill-rule:evenodd;"
d="M 5383,13012
5393,13013
5402,13016
5411,13019
5420,13023
5428,13028
5436,13034
5443,13040
5450,13047
5455,13055
5460,13063
5464,13072
5468,13081
5470,13091
5471,13100
5472,13110
5472,13464
5471,13474
5470,13483
5468,13493
5464,13502
5460,13510
5455,13519
5450,13527
5443,13534
5436,13540
5428,13546
5420,13551
5411,13555
5402,13558
5393,13561
5383,13562
5374,13562
5118,13562
5108,13562
5098,13561
5089,13558
5080,13555
5071,13551
5063,13546
5055,13540
5048,13534
5042,13527
5036,13519
5031,13510
5027,13502
5023,13493
5021,13483
5020,13474
5019,13464
5019,13110
5020,13100
5021,13091
5023,13081
5027,13072
5031,13063
5036,13055
5042,13047
5048,13040
5055,13034
5063,13028
5071,13023
5080,13019
5089,13016
5098,13013
5108,13012
5118,13011
5374,13011
5383,13012
Z" /> 
<path style="fill:#000000; fill-opacity:1.0; 
stroke:#000000; stroke-width:0; stroke-opacity:1; 
stroke-linecap:round; stroke-linejoin:round;fill-rule:evenodd;"
d="M 4576,13012
4586,13013
4595,13016
4604,13019
4613,13023
4621,13028
4629,13034
4636,13040
4643,13047
4648,13055
4653,13063
4657,13072
4661,13081
4663,13091
4664,13100
4665,13110
4665,13464
4664,13474
4663,13483
4661,13493
4657,13502
4653,13510
4648,13519
4643,13527
4636,13534
4629,13540
4621,13546
4613,13551
4604,13555
4595,13558
4586,13561
4576,13562
4566,13562
4311,13562
4301,13562
4291,13561
4282,13558
4273,13555
4264,13551
4256,13546
4248,13540
4241,13534
4234,13527
4229,13519
4224,13510
4220,13502
4216,13493
4214,13483
4213,13474
4212,13464
4212,13110
4213,13100
4214,13091
4216,13081
4220,13072
4224,13063
4229,13055
4234,13047
4241,13040
4248,13034
4256,13028
4264,13023
4273,13019
4282,13016
4291,13013
4301,13012
4311,13011
4566,13011
4576,13012
Z" /> 
</g>
<g >
</g>
<g style="fill:#000000; fill-opacity:1.0; 
stroke:#000000; stroke-width:0; stroke-opacity:1; 
stroke-linecap:round; stroke-linejoin:round;">
<path style="fill:#000000; fill-opacity:1.0; 
stroke:#000000; stroke-width:0; stroke-opacity:1; 
stroke-linecap:round; stroke-linejoin:round;fill-rule:evenodd;"
d="M 8066,7826
8075,7827
8085,7829
8094,7833
8102,7837
8111,7842
8118,7848
8126,7854
8307,8035
8313,8042
8319,8050
8324,8058
8328,8067
8331,8076
8334,8085
8335,8095
8335,8105
8335,8114
8334,8124
8331,8133
8328,8142
8324,8151
8319,8159
8313,8167
8307,8174
8056,8425
8049,8431
8041,8437
8033,8442
8024,8446
8015,8449
8006,8452
7996,8453
7986,8454
7977,8453
7967,8452
7958,8449
7949,8446
7940,8442
7932,8437
7924,8431
7917,8425
7736,8244
7729,8237
7724,8229
7719,8221
7715,8212
7711,8203
7709,8193
7708,8184
7707,8174
7708,8165
7709,8155
7711,8146
7715,8136
7719,8128
7724,8119
7729,8112
7736,8105
7986,7854
7994,7848
8001,7842
8010,7837
8018,7833
8027,7829
8037,7827
8046,7826
8056,7825
8066,7826
Z" /> 
<path style="fill:#000000; fill-opacity:1.0; 
stroke:#000000; stroke-width:0; stroke-opacity:1; 
stroke-linecap:round; stroke-linejoin:round;fill-rule:evenodd;"
d="M 8636,8396
8646,8398
8655,8400
8664,8403
8673,8407
8681,8412
8689,8418
8696,8425
8877,8606
8884,8613
8890,8621
8894,8629
8899,8638
8902,8647
8904,8656
8906,8666
8906,8675
8906,8685
8904,8694
8902,8704
8899,8713
8894,8722
8890,8730
8884,8738
8877,8745
8627,8995
8620,9002
8612,9008
8604,9013
8595,9017
8586,9020
8576,9022
8567,9024
8557,9024
8547,9024
8538,9022
8529,9020
8519,9017
8511,9013
8502,9008
8495,9002
8488,8995
8307,8814
8300,8807
8294,8800
8289,8791
8285,8783
8282,8773
8280,8764
8278,8754
8278,8745
8278,8735
8280,8726
8282,8716
8285,8707
8289,8698
8294,8690
8300,8682
8307,8675
8557,8425
8564,8418
8572,8412
8580,8407
8589,8403
8598,8400
8608,8398
8617,8396
8627,8396
8636,8396
Z" /> 
</g>
<g >
</g>
<g style="fill:#000000; fill-opacity:1.0; 
stroke:#000000; stroke-width:0; stroke-opacity:1; 
stroke-linecap:round; stroke-linejoin:round;">
<path style="fill:#000000; fill-opacity:1.0; 
stroke:#000000; stroke-width:0; stroke-opacity:1; 
stroke-linecap:round; stroke-linejoin:round;fill-rule:evenodd;"
d="M 4576,13799
4586,13801
4595,13803
4604,13806
4613,13810
4621,13815
4629,13821
4636,13828
4643,13835
4648,13842
4653,13851
4657,13859
4661,13869
4663,13878
4664,13887
4665,13897
4665,14251
4664,14261
4663,14271
4661,14280
4657,14289
4653,14298
4648,14306
4643,14314
4636,14321
4629,14328
4621,14333
4613,14338
4604,14342
4595,14346
4586,14348
4576,14349
4566,14350
4311,14350
4301,14349
4291,14348
4282,14346
4273,14342
4264,14338
4256,14333
4248,14328
4241,14321
4234,14314
4229,14306
4224,14298
4220,14289
4216,14280
4214,14271
4213,14261
4212,14251
4212,13897
4213,13887
4214,13878
4216,13869
4220,13859
4224,13851
4229,13842
4234,13835
4241,13828
4248,13821
4256,13815
4264,13810
4273,13806
4282,13803
4291,13801
4301,13799
4311,13799
4566,13799
4576,13799
Z" /> 
<path style="fill:#000000; fill-opacity:1.0; 
stroke:#000000; stroke-width:0; stroke-opacity:1; 
stroke-linecap:round; stroke-linejoin:round;fill-rule:evenodd;"
d="M 5383,13799
5393,13801
5402,13803
5411,13806
5420,13810
5428,13815
5436,13821
5443,13828
5450,13835
5455,13842
5460,13851
5464,13859
5468,13869
5470,13878
5471,13887
5472,13897
5472,14251
5471,14261
5470,14271
5468,14280
5464,14289
5460,14298
5455,14306
5450,14314
5443,14321
5436,14328
5428,14333
5420,14338
5411,14342
5402,14346
5393,14348
5383,14349
5374,14350
5118,14350
5108,14349
5098,14348
5089,14346
5080,14342
5071,14338
5063,14333
5055,14328
5048,14321
5042,14314
5036,14306
5031,14298
5027,14289
5023,14280
5021,14271
5020,14261
5019,14251
5019,13897
5020,13887
5021,13878
5023,13869
5027,13859
5031,13851
5036,13842
5042,13835
5048,13828
5055,13821
5063,13815
5071,13810
5080,13806
5089,13803
5098,13801
5108,13799
5118,13799
5374,13799
5383,13799
Z" /> 
</g>
<g >
</g>
<g >
</g>
<g >
</g>
<g >
</g>
<g >
</g>
<g >
</g>
<g >
</g>
<g >
</g>
</g> 
</svg>
